<?xml version="1.0" standalone="no"?>
<!DOCTYPE svg PUBLIC "-//W3C//DTD SVG 1.1//EN" "http://www.w3.org/Graphics/SVG/1.1/DTD/svg11.dtd" >
<svg xmlns="http://www.w3.org/2000/svg" xmlns:xlink="http://www.w3.org/1999/xlink" version="1.1">
<metadata>
Created by FontForge 20181214 at Thu Jan 13 17:25:37 2011
 By convertio
Copyright by GTJLCARS 09-2010
</metadata>
<defs>
<font id="LCARSGTJ3" horiz-adv-x="674" >
  <font-face 
    font-family="LCARSGTJ3"
    font-weight="400"
    font-stretch="condensed"
    units-per-em="2048"
    panose-1="2 11 6 0 2 2 2 6 2 4"
    ascent="1638"
    descent="-410"
    x-height="1475"
    cap-height="1475"
    bbox="-315 -483 2048 1837"
    underline-thickness="121"
    underline-position="-218"
    unicode-range="U+0020-F002"
  />
<missing-glyph horiz-adv-x="1229" 
d="M102 -8v1480h1024v-1480h-1024zM264 85h695v1293h-695v-1293z" />
    <glyph glyph-name=".notdef" horiz-adv-x="1229" 
d="M102 -8v1480h1024v-1480h-1024zM264 85h695v1293h-695v-1293z" />
    <glyph glyph-name=".null" horiz-adv-x="0" 
 />
    <glyph glyph-name="nonmarkingreturn" horiz-adv-x="336" 
 />
    <glyph glyph-name="space" unicode=" " horiz-adv-x="336" 
 />
    <glyph glyph-name="exclam" unicode="!" horiz-adv-x="360" 
d="M76 322v1153h209v-1153h-209zM76 0v238h209v-238h-209z" />
    <glyph glyph-name="quotedbl" unicode="&#x22;" horiz-adv-x="643" 
d="M395 1476h164v-557h-164v557zM86 1476h164v-557h-164v557z" />
    <glyph glyph-name="numbersign" unicode="#" horiz-adv-x="1575" 
d="M709 852l-91 -254h256l91 254h-256zM735 1460h191l-154 -436h250l156 436h190l-154 -436h291l-59 -172h-293l-90 -252h309l-61 -172h-307l-156 -434h-191l156 434h-252l-158 -434h-190l156 434h-299l61 172h297l90 252h-315l61 172h316z" />
    <glyph glyph-name="dollar" unicode="$" 
d="M393 -209h-92v211q-136 20 -189 89t-53 267v224h217v-287q0 -72 14.5 -93.5t51.5 -21.5t51.5 23t14.5 100v62q0 47 -12 86t-36 73l-155 217q-5 8 -15 21q-131 182 -131 381q0 153 57.5 229.5t184.5 95.5v168h92v-168q136 -19 189 -88t53 -266v-223h-215v285
q0 67 -15 90.5t-53 23.5q-37 0 -51 -23.5t-14 -115.5v-18q0 -52 13.5 -103t35.5 -82l129 -182q12 -16 34 -46q136 -181 136 -374q0 -168 -54.5 -243.5t-187.5 -100.5v-211z" />
    <glyph glyph-name="percent" unicode="%" horiz-adv-x="1128" 
d="M909 168v414q0 38 -11 52.5t-38 14.5t-38 -14.5t-11 -52.5v-414q0 -38 11.5 -54t37.5 -16t37.5 16t11.5 54zM647 528q0 136 51 195t164 59q114 0 165.5 -59.5t51.5 -194.5v-305q0 -135 -51.5 -195.5t-165.5 -60.5q-113 0 -164 60t-51 196v305zM756 1505h108l-495 -1538
h-107zM315 891v412q0 38 -11 53.5t-38 15.5t-38 -15.5t-11 -53.5v-412q0 -38 11.5 -54t37.5 -16t37.5 16t11.5 54zM49 1249q0 136 52 196t165 60q114 0 165.5 -60t51.5 -196v-305q0 -135 -51.5 -195.5t-165.5 -60.5q-113 0 -165 60.5t-52 195.5v305z" />
    <glyph glyph-name="ampersand" unicode="&#x26;" horiz-adv-x="735" 
d="M315 954q61 45 78 71t17 60v150q0 48 -14.5 70t-45.5 22q-34 0 -48.5 -23t-14.5 -79v-133q0 -61 25 -128q2 -6 3 -10zM428 168q-66 141 -107.5 246t-64.5 192v-274q0 -92 25 -135t77 -43q13 0 30.5 3.5t39.5 10.5zM39 336v246q0 93 26 149t91 113q-44 77 -60 131.5
t-16 114.5v151q0 104 74.5 169t195.5 65t189.5 -63t68.5 -171v-149q0 -83 -44.5 -147t-176.5 -159l59 -168q17 -46 31 -92t25 -92v346h196v-487q0 -36 -6 -65.5t-18 -57.5h71v-170h-141q-28 0 -42 6t-23 20q-46 -23 -87.5 -33.5t-86.5 -10.5q-165 0 -245.5 88t-80.5 266z
" />
    <glyph glyph-name="quotesingle" unicode="'" horiz-adv-x="334" 
d="M86 1476h164v-557h-164v557z" />
    <glyph glyph-name="parenleft" unicode="(" horiz-adv-x="524" 
d="M502 -176h-183q-90 174 -138 385t-48 440q0 231 47.5 441t138.5 385h181q-93 -191 -138 -394.5t-45 -431.5q0 -222 46 -427t139 -398z" />
    <glyph glyph-name="parenright" unicode=")" horiz-adv-x="524" 
d="M25 -176q92 193 138 398t46 427q0 225 -45.5 429t-138.5 397h182q90 -174 137 -383.5t47 -442.5q0 -229 -47.5 -440t-138.5 -385h-180z" />
    <glyph glyph-name="asterisk" unicode="*" horiz-adv-x="702" 
d="M164 1087l92 123l-141 45l39 115l139 -45l-2 150h121l-2 -150l139 45l37 -115l-142 -45l86 -118l-96 -72l-86 119l-84 -121z" />
    <glyph glyph-name="plus" unicode="+" horiz-adv-x="1706" 
d="M768 1221h170v-527h514v-166h-514v-528h-170v528h-514v166h514v527z" />
    <glyph glyph-name="comma" unicode="," horiz-adv-x="336" 
d="M29 -264l69 487h205l-149 -487h-125z" />
    <glyph glyph-name="hyphen" unicode="-" horiz-adv-x="360" 
d="M49 512v156h260v-156h-260z" />
    <glyph glyph-name="period" unicode="." horiz-adv-x="336" 
d="M70 0v233h198v-233h-198z" />
    <glyph glyph-name="slash" unicode="/" horiz-adv-x="740" 
d="M155 0h-139l567 1472h143z" />
    <glyph glyph-name="zero" unicode="0" 
d="M272 1241v-999q0 -50 15 -70t49 -20t49.5 20.5t15.5 69.5v999q0 48 -15 68t-50 20q-34 0 -49 -19.5t-15 -68.5zM51 1223q0 139 72.5 210.5t212.5 71.5t212.5 -71.5t72.5 -210.5v-973q0 -139 -72.5 -211t-212.5 -72t-212.5 72t-72.5 211v973z" />
    <glyph glyph-name="one" unicode="1" horiz-adv-x="536" 
d="M233 0v1120h-159v162q99 6 149.5 54t50.5 134v5h181v-1475h-222z" />
    <glyph glyph-name="two" unicode="2" 
d="M295 179l321 -1v-178h-570q-2 15 -2.5 31.5t-0.5 48.5q0 123 31 238t112 274q24 46 74 131q141 241 141 395v125q0 44 -15 62t-50 18q-29 0 -45.5 -21t-16.5 -59v-280h-221v260q0 138 75 210t218 72q137 0 207 -63t70 -187v-178q0 -162 -136 -403q-22 -38 -32 -58
q-94 -173 -126 -265.5t-34 -171.5z" />
    <glyph glyph-name="three" unicode="3" 
d="M51 558h221v-289q0 -51 15 -69.5t49 -18.5t47.5 19t13.5 69v276q0 72 -24 96t-86 24h-15v165h19q54 0 80 32t26 96v289q0 16 -1 32q-1 5 -1 6q0 20 -16.5 34t-42.5 14q-34 0 -49 -18t-15 -68v-297h-221v279q0 137 71.5 206.5t213.5 69.5t211 -68.5t69 -207.5v-250
q0 -107 -40 -161.5t-127 -65.5q97 -15 132 -54.5t35 -139.5v-281q0 -140 -69 -209t-211 -69t-213.5 70t-71.5 208v281z" />
    <glyph glyph-name="four" unicode="4" horiz-adv-x="738" 
d="M393 0v367h-360v165l279 943h301v-928h92v-180h-92v-367h-220zM223 547h179l12 534q0 17 13 166l3 37h-20q-11 -62 -20.5 -108t-18.5 -82z" />
    <glyph glyph-name="five" unicode="5" 
d="M625 276q0 -136 -72.5 -206t-212.5 -70q-142 0 -210.5 68t-68.5 208v285h215v-292q0 -49 15 -68.5t49 -19.5t50 20t16 68v402q0 37 -14.5 57.5t-41.5 20.5q-18 0 -32 -10t-26 -32h-222v768h563v-177h-342v-436q40 42 78.5 60t87.5 18q91 0 129.5 -49.5t38.5 -197.5v-417z
" />
    <glyph glyph-name="six" unicode="6" 
d="M57 277v952q0 136 72.5 206t212.5 70t212.5 -70t72.5 -206v-277h-221v295q0 48 -15 67t-49 19q-35 0 -50.5 -19.5t-15.5 -66.5v-411q39 38 78 55t86 17q84 0 135.5 -57.5t51.5 -154.5v-419q0 -136 -72.5 -207t-212.5 -71t-212.5 71t-72.5 207zM276 612v-370
q0 -49 15.5 -69.5t50.5 -20.5q34 0 49 20t15 70v370q0 50 -15 70t-49 20q-35 0 -50.5 -20.5t-15.5 -69.5z" />
    <glyph glyph-name="seven" unicode="7" 
d="M70 0l331 1294h-383v181h603v-185l-314 -1290h-237z" />
    <glyph glyph-name="eight" unicode="8" 
d="M401 958v283q0 48 -15 68t-50 20q-34 0 -49 -19.5t-15 -68.5v-283q0 -49 15 -69.5t49 -20.5t49.5 21t15.5 69zM51 1229q0 136 72.5 206t212.5 70t212.5 -70t72.5 -206v-214q0 -92 -45 -151t-134 -82q94 -17 136.5 -70t42.5 -152v-283q0 -136 -72.5 -207t-212.5 -71
t-212.5 71t-72.5 207v279q0 98 37 147.5t127 78.5q-94 23 -129 69.5t-35 156.5v221zM272 575v-333q0 -50 15 -70t49 -20t49.5 20.5t15.5 69.5v333q0 49 -15.5 70t-49.5 21t-49 -20.5t-15 -70.5z" />
    <glyph glyph-name="nine" unicode="9" 
d="M51 471h221v-202q0 -49 15 -68.5t49 -19.5t49.5 20t15.5 68v320q-38 -37 -77 -54.5t-86 -17.5q-85 0 -136 57.5t-51 153.5v501q0 136 72.5 206t212.5 70t212.5 -70t72.5 -206v-952q0 -136 -72.5 -207t-212.5 -71t-212.5 71t-72.5 207v194zM401 786v445q0 48 -15 68
t-50 20q-34 0 -49 -19.5t-15 -68.5v-445q0 -49 15 -68.5t49 -19.5q35 0 50 20.5t15 67.5z" />
    <glyph glyph-name="colon" unicode=":" horiz-adv-x="336" 
d="M70 936v233h198v-233h-198zM70 0v233h198v-233h-198z" />
    <glyph glyph-name="semicolon" unicode=";" horiz-adv-x="336" 
d="M12 -264l70 487h207l-152 -487h-125zM70 936v233h198v-233h-198z" />
    <glyph glyph-name="less" unicode="&#x3c;" horiz-adv-x="1706" 
d="M1442 1176v-185l-934 -381l934 -381v-182l-1178 483v160z" />
    <glyph glyph-name="equal" unicode="=" horiz-adv-x="1706" 
d="M254 487h1198v-165h-1198v165zM254 901h1198v-168h-1198v168z" />
    <glyph glyph-name="greater" unicode="&#x3e;" horiz-adv-x="1706" 
d="M264 1176l1178 -486v-160l-1178 -483v182l934 381l-934 381v185z" />
    <glyph glyph-name="question" unicode="?" horiz-adv-x="535" 
d="M315 1094v202q0 36 -10.5 52t-34.5 16q-23 0 -34 -15.5t-11 -52.5v-360h-200v340q0 114 61 171.5t182 57.5q122 0 184 -58t62 -171v-184q0 -115 -56 -227l-3 -6q-10 -20 -27 -53q-68 -125 -68 -220v-264h-198v292q0 132 74 261l6 10q3 6 9 17q64 115 64 192zM162 238h198
v-238h-198v238z" />
    <glyph glyph-name="at" unicode="@" horiz-adv-x="1065" 
d="M302 1472h434q233 -31 233 -201v-713q0 -233 -388 -233h-15q0 62 -31 62q-16 -62 -93 -62q-93 0 -93 140v186q0 129 186 232l15 78v108h-62v-201h-139v108q0 186 170 186q171 0 171 -186v-480q77 21 77 108v574q0 83 -62 108h-372q-62 -25 -62 -108v-868q0 -109 109 -109
h604v-201h-527q-387 0 -387 232v1039q0 170 232 201zM488 713v-279h62v325h-15q-22 0 -47 -46z" />
    <glyph glyph-name="A" unicode="A" horiz-adv-x="728" 
d="M29 0l176 1475h334l160 -1475h-224l-45 397h-137l-47 -397h-217zM312 588h102l-23 367q-2 48 -6.5 112t-15.5 186h-10q-3 -32 -11 -159q-6 -88 -10 -142z" />
    <glyph glyph-name="B" unicode="B" horiz-adv-x="653" 
d="M276 690v-510h48q41 0 61.5 24t20.5 72v320q0 48 -20 71t-62 23h-48zM406 967v241q0 49 -20.5 73t-61.5 24h-48v-435h48q41 0 61.5 24t20.5 73zM57 1475h260q164 0 237 -63.5t73 -207.5v-194q0 -91 -55 -148.5t-162 -79.5v-8q109 -9 163 -59.5t54 -143.5v-301
q0 -142 -73 -206t-237 -64h-260v1475z" />
    <glyph glyph-name="C" unicode="C" horiz-adv-x="639" 
d="M383 1247q0 48 -14.5 67t-48.5 19t-49 -19t-15 -67v-978q0 -49 15 -68.5t49 -19.5t48.5 19.5t14.5 68.5v324h221v-316q0 -136 -72 -207t-212 -71q-141 0 -213 71t-72 207v952q0 136 72 206t213 70q140 0 212 -70t72 -206v-287h-221v305z" />
    <glyph glyph-name="D" unicode="D" 
d="M276 1305v-1125h48q41 0 61.5 24t20.5 72v932q0 49 -20.5 73t-61.5 24h-48zM57 1475h260q164 0 237 -64t73 -207v-934q0 -142 -73 -206t-237 -64h-260v1475z" />
    <glyph glyph-name="E" unicode="E" horiz-adv-x="587" 
d="M51 0v1475h486v-201h-267v-371h261v-194h-261v-506h267v-203h-486z" />
    <glyph glyph-name="F" unicode="F" horiz-adv-x="577" 
d="M46 0v1475h486v-201h-267v-371h261v-194h-261v-709h-219z" />
    <glyph glyph-name="G" unicode="G" horiz-adv-x="687" 
d="M411 1248q0 47 -15 66.5t-50 19.5q-34 0 -49 -19t-15 -67v-976q0 -49 15 -68.5t49 -19.5t49.5 20t15.5 68v315h-94v179h314v-730h-115l-12 88h-7q-34 -62 -85 -93t-119 -31q-115 0 -173.5 72t-58.5 214v944q0 136 72.5 205.5t212.5 69.5t212.5 -69.5t72.5 -205.5v-286
h-220v304z" />
    <glyph glyph-name="H" unicode="H" horiz-adv-x="678" 
d="M57 0v1475h219v-562h125v562h220v-1475h-220v709h-125v-709h-219z" />
    <glyph glyph-name="I" unicode="I" horiz-adv-x="334" 
d="M276 0h-219v1475h219v-1475z" />
    <glyph glyph-name="J" unicode="J" horiz-adv-x="687" 
d="M628 1475v-1199q0 -136 -72 -206t-213 -70q-148 0 -216 69.5t-68 220.5v303h221v-324q0 -49 14.5 -68.5t48.5 -19.5t49 19.5t15 68.5v1206h221z" />
    <glyph glyph-name="K" unicode="K" horiz-adv-x="705" 
d="M47 0v1475h219v-654h9l170 654h213l-181 -674l181 -801h-232l-151 743h-9v-743h-219z" />
    <glyph glyph-name="L" unicode="L" horiz-adv-x="566" 
d="M40 0v1475h219v-1272h267v-203h-486z" />
    <glyph glyph-name="M" unicode="M" horiz-adv-x="958" 
d="M57 0v1475h332l64 -555v-9q0 -7 3 -53q15 -232 21 -469h12q4 136 12 264t21 252l60 570h321v-1475h-201l5 768v20q0 46 2.5 169t6.5 274h-11q-6 -114 -14 -214t-15 -165l-98 -852h-209q-53 452 -81 739t-40 492h-12q1 -73 5 -192q5 -191 5 -216v-823h-189z" />
    <glyph glyph-name="N" unicode="N" horiz-adv-x="786" 
d="M57 0v1475h334l82 -605q22 -163 41 -335t35 -351l12 1q-4 180 -6 319.5t-2 187.5l-6 783h182v-1475h-326l-106 815q-27 210 -39.5 311.5t-19.5 171.5h-15q3 -162 4.5 -253.5t1.5 -116.5l7 -928h-179z" />
    <glyph glyph-name="O" unicode="O" 
d="M272 1241v-999q0 -50 15 -70t49 -20t49.5 20.5t15.5 69.5v999q0 48 -15 68t-50 20q-34 0 -49 -19.5t-15 -68.5zM51 1229q0 136 72.5 206t212.5 70t212.5 -70t72.5 -206v-952q0 -136 -72.5 -207t-212.5 -71t-212.5 71t-72.5 207v952z" />
    <glyph glyph-name="P" unicode="P" horiz-adv-x="671" 
d="M51 0v1475h260q162 0 236 -63.5t74 -203.5v-362q0 -142 -73.5 -206.5t-236.5 -64.5h-41v-575h-219zM400 846v362q0 49 -20.5 73t-61.5 24h-48v-555h48q41 0 61.5 23.5t20.5 72.5z" />
    <glyph glyph-name="Q" unicode="Q" 
d="M272 1241v-999q0 -50 15 -70t49 -20t49.5 20.5t15.5 69.5v999q0 48 -15 68t-50 20q-34 0 -49 -19.5t-15 -68.5zM51 1230q0 136 72.5 205.5t212.5 69.5t212.5 -69.5t72.5 -205.5v-956q0 -91 -26 -145t-85 -88l2 -16h70h53v-170h-127q-49 0 -76.5 37t-32.5 107
q-16 -1 -30.5 -1.5t-32.5 -0.5q-140 0 -212.5 70.5t-72.5 206.5v956z" />
    <glyph glyph-name="R" unicode="R" horiz-adv-x="698" 
d="M394 967v241q0 49 -20.5 73t-61.5 24h-48v-435h48q41 0 61.5 24t20.5 73zM45 1475h260q164 0 237 -63.5t73 -207.5v-172q0 -114 -50.5 -172.5t-166.5 -77.5v-8q109 -2 163 -52.5t54 -150.5v-301q0 -99 9.5 -164.5t29.5 -105.5h-232q-15 35 -21.5 84.5t-6.5 124.5v65v322
q0 47 -29.5 69.5t-91.5 22.5h-9v-688h-219v1475z" />
    <glyph glyph-name="S" unicode="S" horiz-adv-x="645" 
d="M39 1229q0 136 71.5 206t210.5 70q141 0 213 -70t72 -206v-287h-219v305q0 47 -15.5 66.5t-50.5 19.5q-34 0 -48.5 -19t-14.5 -67v-104q0 -54 7 -86t22 -53l239 -320q45 -61 62.5 -110t17.5 -107v-190q0 -136 -72 -207t-213 -71q-139 0 -210.5 70.5t-71.5 207.5v316h219
v-324q0 -49 14.5 -68.5t48.5 -19.5q35 0 50.5 20t15.5 68v150q0 29 -9 56.5t-28 53.5l-250 341q-32 44 -46.5 91t-14.5 112v156z" />
    <glyph glyph-name="T" unicode="T" horiz-adv-x="660" 
d="M440 0h-220v1284h-190v191h600v-191h-190v-1284z" />
    <glyph glyph-name="U" unicode="U" 
d="M51 276v1199h221v-1206q0 -49 15 -68.5t49 -19.5t49.5 20t15.5 68v1206h220v-1199q0 -136 -72.5 -206t-212.5 -70t-212.5 70t-72.5 206z" />
    <glyph glyph-name="V" unicode="V" horiz-adv-x="734" 
d="M205 0l-172 1475h221l76 -703q0 -4 1 -12q30 -275 32 -486h10q6 187 17 340t26 273l72 588h213l-179 -1475h-317z" />
    <glyph glyph-name="W" unicode="W" horiz-adv-x="1021" 
d="M165 0q-3 101 -12.5 236.5t-26.5 330.5l-86 908h217l41 -523q7 -107 13.5 -249t11.5 -316h13q8 220 14 361t9 167l53 560h238l45 -592q4 -49 7.5 -184.5t5.5 -311.5h13q8 227 15 354.5t16 210.5l54 523h174l-144 -1475h-241l-66 887q-3 50 -4.5 96.5t-1.5 91.5v60h-10
q-10 -176 -32.5 -475t-53.5 -660h-262z" />
    <glyph glyph-name="X" unicode="X" horiz-adv-x="717" 
d="M18 0l191 741l-176 734h233l45 -215q1 -3 2 -8q36 -160 49 -355h9q12 118 27.5 208t35.5 165l55 205h205l-176 -664l180 -811h-231l-78 367q-10 49 -18 116t-13 148h-10q-6 -123 -35 -251q-1 -4 -2 -7l-82 -373h-211z" />
    <glyph glyph-name="Y" unicode="Y" horiz-adv-x="706" 
d="M236 0v553l-217 922h217l80 -324q15 -62 24.5 -143.5t12.5 -175.5h8q5 88 15.5 164.5t27.5 148.5l76 330h207l-225 -922v-553h-226z" />
    <glyph glyph-name="Z" unicode="Z" horiz-adv-x="557" 
d="M31 0v172l258 1112h-252v191h488v-175l-256 -1110h256v-190h-494z" />
    <glyph glyph-name="bracketleft" unicode="[" horiz-adv-x="516" 
d="M317 -27h170v-149h-360v1651h360v-156h-170v-1346z" />
    <glyph glyph-name="backslash" unicode="\" horiz-adv-x="740" 
d="M16 1472h143l567 -1472h-139z" />
    <glyph glyph-name="bracketright" unicode="]" horiz-adv-x="516" 
d="M195 1319h-170v156h360v-1651h-360v149h170v1346z" />
    <glyph glyph-name="asciicircum" unicode="^" horiz-adv-x="2048" 
d="M915 1460h218l495 -561h-207l-397 397l-399 -397h-207z" />
    <glyph glyph-name="underscore" unicode="_" horiz-adv-x="1024" 
d="M0 -311h1024v-172h-1024v172z" />
    <glyph glyph-name="grave" unicode="`" horiz-adv-x="1024" 
d="M477 1251l-139 224h186l72 -224h-119z" />
    <glyph glyph-name="a" unicode="a" horiz-adv-x="728" 
d="M29 0l176 1475h334l160 -1475h-224l-45 397h-137l-47 -397h-217zM312 588h102l-23 367q-2 48 -6.5 112t-15.5 186h-10q-3 -32 -11 -159q-6 -88 -10 -142z" />
    <glyph glyph-name="b" unicode="b" horiz-adv-x="653" 
d="M276 690v-510h48q41 0 61.5 24t20.5 72v320q0 48 -20 71t-62 23h-48zM406 967v241q0 49 -20.5 73t-61.5 24h-48v-435h48q41 0 61.5 24t20.5 73zM57 1475h260q164 0 237 -63.5t73 -207.5v-194q0 -91 -55 -148.5t-162 -79.5v-8q109 -9 163 -59.5t54 -143.5v-301
q0 -142 -73 -206t-237 -64h-260v1475z" />
    <glyph glyph-name="c" unicode="c" horiz-adv-x="639" 
d="M383 1247q0 48 -14.5 67t-48.5 19t-49 -19t-15 -67v-978q0 -49 15 -68.5t49 -19.5t48.5 19.5t14.5 68.5v324h221v-316q0 -136 -72 -207t-212 -71q-141 0 -213 71t-72 207v952q0 136 72 206t213 70q140 0 212 -70t72 -206v-287h-221v305z" />
    <glyph glyph-name="d" unicode="d" 
d="M276 1305v-1125h48q41 0 61.5 24t20.5 72v932q0 49 -20.5 73t-61.5 24h-48zM57 1475h260q164 0 237 -64t73 -207v-934q0 -142 -73 -206t-237 -64h-260v1475z" />
    <glyph glyph-name="e" unicode="e" horiz-adv-x="587" 
d="M51 0v1475h486v-201h-267v-371h261v-194h-261v-506h267v-203h-486z" />
    <glyph glyph-name="f" unicode="f" horiz-adv-x="577" 
d="M46 0v1475h486v-201h-267v-371h261v-194h-261v-709h-219z" />
    <glyph glyph-name="g" unicode="g" horiz-adv-x="687" 
d="M411 1248q0 47 -15 66.5t-50 19.5q-34 0 -49 -19t-15 -67v-976q0 -49 15 -68.5t49 -19.5t49.5 20t15.5 68v315h-94v179h314v-730h-115l-12 88h-7q-34 -62 -85 -93t-119 -31q-115 0 -173.5 72t-58.5 214v944q0 136 72.5 205.5t212.5 69.5t212.5 -69.5t72.5 -205.5v-286
h-220v304z" />
    <glyph glyph-name="h" unicode="h" horiz-adv-x="678" 
d="M57 0v1475h219v-562h125v562h220v-1475h-220v709h-125v-709h-219z" />
    <glyph glyph-name="i" unicode="i" horiz-adv-x="334" 
d="M276 0h-219v1475h219v-1475z" />
    <glyph glyph-name="j" unicode="j" horiz-adv-x="687" 
d="M628 1475v-1199q0 -136 -72 -206t-213 -70q-148 0 -216 69.5t-68 220.5v303h221v-324q0 -49 14.5 -68.5t48.5 -19.5t49 19.5t15 68.5v1206h221z" />
    <glyph glyph-name="k" unicode="k" horiz-adv-x="705" 
d="M47 0v1475h219v-654h9l170 654h213l-181 -674l181 -801h-232l-151 743h-9v-743h-219z" />
    <glyph glyph-name="l" unicode="l" horiz-adv-x="566" 
d="M40 0v1475h219v-1272h267v-203h-486z" />
    <glyph glyph-name="m" unicode="m" horiz-adv-x="958" 
d="M57 0v1475h332l64 -555v-9q0 -7 3 -53q15 -232 21 -469h12q4 136 12 264t21 252l60 570h321v-1475h-201l5 768v20q0 46 2.5 169t6.5 274h-11q-6 -114 -14 -214t-15 -165l-98 -852h-209q-53 452 -81 739t-40 492h-12q1 -73 5 -192q5 -191 5 -216v-823h-189z" />
    <glyph glyph-name="n" unicode="n" horiz-adv-x="786" 
d="M57 0v1475h334l82 -605q22 -163 41 -335t35 -351l12 1q-4 180 -6 319.5t-2 187.5l-6 783h182v-1475h-326l-106 815q-27 210 -39.5 311.5t-19.5 171.5h-15q3 -162 4.5 -253.5t1.5 -116.5l7 -928h-179z" />
    <glyph glyph-name="o" unicode="o" 
d="M272 1241v-999q0 -50 15 -70t49 -20t49.5 20.5t15.5 69.5v999q0 48 -15 68t-50 20q-34 0 -49 -19.5t-15 -68.5zM51 1229q0 136 72.5 206t212.5 70t212.5 -70t72.5 -206v-952q0 -136 -72.5 -207t-212.5 -71t-212.5 71t-72.5 207v952z" />
    <glyph glyph-name="p" unicode="p" horiz-adv-x="671" 
d="M51 0v1475h260q162 0 236 -63.5t74 -203.5v-362q0 -142 -73.5 -206.5t-236.5 -64.5h-41v-575h-219zM400 846v362q0 49 -20.5 73t-61.5 24h-48v-555h48q41 0 61.5 23.5t20.5 72.5z" />
    <glyph glyph-name="q" unicode="q" 
d="M272 1241v-999q0 -50 15 -70t49 -20t49.5 20.5t15.5 69.5v999q0 48 -15 68t-50 20q-34 0 -49 -19.5t-15 -68.5zM51 1230q0 136 72.5 205.5t212.5 69.5t212.5 -69.5t72.5 -205.5v-956q0 -91 -26 -145t-85 -88l2 -16h70h53v-170h-127q-49 0 -76.5 37t-32.5 107
q-16 -1 -30.5 -1.5t-32.5 -0.5q-140 0 -212.5 70.5t-72.5 206.5v956z" />
    <glyph glyph-name="r" unicode="r" horiz-adv-x="698" 
d="M394 967v241q0 49 -20.5 73t-61.5 24h-48v-435h48q41 0 61.5 24t20.5 73zM45 1475h260q164 0 237 -63.5t73 -207.5v-172q0 -114 -50.5 -172.5t-166.5 -77.5v-8q109 -2 163 -52.5t54 -150.5v-301q0 -99 9.5 -164.5t29.5 -105.5h-232q-15 35 -21.5 84.5t-6.5 124.5v65v322
q0 47 -29.5 69.5t-91.5 22.5h-9v-688h-219v1475z" />
    <glyph glyph-name="s" unicode="s" horiz-adv-x="645" 
d="M39 1229q0 136 71.5 206t210.5 70q141 0 213 -70t72 -206v-287h-219v305q0 47 -15.5 66.5t-50.5 19.5q-34 0 -48.5 -19t-14.5 -67v-104q0 -54 7 -86t22 -53l239 -320q45 -61 62.5 -110t17.5 -107v-190q0 -136 -72 -207t-213 -71q-139 0 -210.5 70.5t-71.5 207.5v316h219
v-324q0 -49 14.5 -68.5t48.5 -19.5q35 0 50.5 20t15.5 68v150q0 29 -9 56.5t-28 53.5l-250 341q-32 44 -46.5 91t-14.5 112v156z" />
    <glyph glyph-name="t" unicode="t" horiz-adv-x="660" 
d="M440 0h-220v1284h-190v191h600v-191h-190v-1284z" />
    <glyph glyph-name="u" unicode="u" 
d="M51 276v1199h221v-1206q0 -49 15 -68.5t49 -19.5t49.5 20t15.5 68v1206h220v-1199q0 -136 -72.5 -206t-212.5 -70t-212.5 70t-72.5 206z" />
    <glyph glyph-name="v" unicode="v" horiz-adv-x="734" 
d="M205 0l-172 1475h221l76 -703q0 -4 1 -12q30 -275 32 -486h10q6 187 17 340t26 273l72 588h213l-179 -1475h-317z" />
    <glyph glyph-name="w" unicode="w" horiz-adv-x="1021" 
d="M165 0q-3 101 -12.5 236.5t-26.5 330.5l-86 908h217l41 -523q7 -107 13.5 -249t11.5 -316h13q8 220 14 361t9 167l53 560h238l45 -592q4 -49 7.5 -184.5t5.5 -311.5h13q8 227 15 354.5t16 210.5l54 523h174l-144 -1475h-241l-66 887q-3 50 -4.5 96.5t-1.5 91.5v60h-10
q-10 -176 -32.5 -475t-53.5 -660h-262z" />
    <glyph glyph-name="x" unicode="x" horiz-adv-x="717" 
d="M18 0l191 741l-176 734h233l45 -215q1 -3 2 -8q36 -160 49 -355h9q12 118 27.5 208t35.5 165l55 205h205l-176 -664l180 -811h-231l-78 367q-10 49 -18 116t-13 148h-10q-6 -123 -35 -251q-1 -4 -2 -7l-82 -373h-211z" />
    <glyph glyph-name="y" unicode="y" horiz-adv-x="706" 
d="M236 0v553l-217 922h217l80 -324q15 -62 24.5 -143.5t12.5 -175.5h8q5 88 15.5 164.5t27.5 148.5l76 330h207l-225 -922v-553h-226z" />
    <glyph glyph-name="z" unicode="z" horiz-adv-x="557" 
d="M31 0v172l258 1112h-252v191h488v-175l-256 -1110h256v-190h-494z" />
    <glyph glyph-name="braceleft" unicode="{" horiz-adv-x="1024" 
d="M874 1477v-179q-8 0 -24 1t-23 1q-109 0 -147.5 -41.5t-38.5 -173.5v-241q0 -155 -44 -220.5t-159 -93.5q114 -27 158.5 -92.5t44.5 -220.5v-240q0 -132 39.5 -174.5t148.5 -42.5q7 0 22 1t23 1v-176h-63q-102 0 -165.5 12t-106.5 37q-57 34 -80 96t-23 203v248
q0 144 -52.5 203t-178.5 59q-7 0 -21.5 -1t-21.5 -1v179q7 0 21.5 -1.5t21.5 -1.5q126 0 178.5 59t52.5 202v247q0 145 23 206.5t80 94.5q44 27 109 38.5t181 11.5h45z" />
    <glyph glyph-name="bar" unicode="|" horiz-adv-x="1024" 
d="M424 1565h178v-2048h-178v2048z" />
    <glyph glyph-name="braceright" unicode="}" horiz-adv-x="1024" 
d="M152 1477h45q115 0 179.5 -11.5t108.5 -38.5q57 -33 80 -95t23 -206v-247q0 -144 52 -202.5t179 -58.5q6 0 21 1.5t22 1.5v-179q-7 0 -21.5 1t-21.5 1q-126 0 -178.5 -59t-52.5 -203v-248q0 -143 -23 -204t-80 -95q-43 -26 -108 -37.5t-180 -11.5h-45v176q8 0 23 -1
t22 -1q109 0 147.5 42t38.5 175v240q0 153 45 219t160 94q-115 28 -160 93.5t-45 220.5v241q0 132 -38 173.5t-146 41.5q-7 0 -23 -1t-24 -1v179z" />
    <glyph glyph-name="asciitilde" unicode="~" horiz-adv-x="1706" 
d="M1530 784v-184q-103 -71 -197.5 -106t-183.5 -35q-44 0 -92.5 8.5t-98.5 26.5q-25 8 -76 26q-212 74 -319 74q-82 0 -174 -38t-211 -122v187q106 72 202 107.5t185 35.5q62 0 125.5 -12t168.5 -48q13 -4 42 -15q164 -58 250 -58q85 0 177 37t202 116z" />
    <glyph glyph-name="Adieresis" unicode="&#xc4;" horiz-adv-x="720" 
d="M0 0l176 1475h334l160 -1475h-224l-45 397h-137l-47 -397h-217zM283 588h102l-23 367q-2 48 -6.5 112t-15.5 186h-10q-3 -32 -11 -159q-6 -88 -10 -142zM163 1567v200h135v-200h-135zM388 1567v200h135v-200h-135z" />
    <glyph glyph-name="Aring" unicode="&#xc5;" horiz-adv-x="672" 
d="M184 1679q0 65 47 111.5t113 46.5q64 0 110 -46.5t46 -111.5t-45.5 -111t-110.5 -46q-66 0 -113 46t-47 111zM281 1679q0 -24 18.5 -42.5t44.5 -18.5t42.5 17.5t16.5 43.5q0 28 -16.5 45t-42.5 17q-27 0 -45 -17.5t-18 -44.5zM0 0l176 1475h334l160 -1475h-224l-45 397
h-137l-47 -397h-217zM283 588h102l-23 367q-2 48 -6.5 112t-15.5 186h-10q-3 -32 -11 -159q-6 -88 -10 -142z" />
    <glyph glyph-name="Ccedilla" unicode="&#xc7;" horiz-adv-x="639" 
d="M395 1247q0 48 -14.5 67t-48.5 19t-49 -19t-15 -67v-978q0 -49 15 -68.5t49 -19.5t48.5 19.5t14.5 68.5v324h221v-316q0 -136 -72 -207t-212 -71q-141 0 -213 71t-72 207v952q0 136 72 206t213 70q140 0 212 -70t72 -206v-287h-221v305zM145 -266l119 198h125l-67 -198
h-177z" />
    <glyph glyph-name="Eacute" unicode="&#xc9;" horiz-adv-x="559" 
d="M57 0v1475h486v-201h-267v-371h261v-194h-261v-506h267v-203h-486zM338 1556h-119l72 224h186z" />
    <glyph glyph-name="Ntilde" unicode="&#xd1;" horiz-adv-x="786" 
d="M57 0v1475h334l82 -605q22 -163 41 -335t35 -351l12 1q-4 180 -6 319.5t-2 187.5l-6 783h182v-1475h-326l-106 815q-27 210 -39.5 311.5t-19.5 171.5h-15q3 -162 4.5 -253.5t1.5 -116.5l7 -928h-179zM606 1769q0 -92 -30 -143t-84 -51q-35 0 -81.5 31.5t-64.5 31.5
q-16 0 -26.5 -16.5t-10.5 -42.5v-12h-79v14q0 82 31.5 130t84.5 48q34 0 80 -30.5t64 -30.5q16 0 27.5 15.5t11.5 39.5q0 3 -1 8t-1 8h79z" />
    <glyph glyph-name="Odieresis" unicode="&#xd6;" horiz-adv-x="702" 
d="M292 1241v-999q0 -50 15 -70t49 -20t49.5 20.5t15.5 69.5v999q0 48 -15 68t-50 20q-34 0 -49 -19.5t-15 -68.5zM71 1229q0 136 72.5 206t212.5 70t212.5 -70t72.5 -206v-952q0 -136 -72.5 -207t-212.5 -71t-212.5 71t-72.5 207v952zM169 1582v200h135v-200h-135z
M394 1582v200h135v-200h-135z" />
    <glyph glyph-name="Udieresis" unicode="&#xdc;" horiz-adv-x="695" 
d="M61 276v1199h221v-1206q0 -49 15 -68.5t49 -19.5t49.5 20t15.5 68v1206h220v-1199q0 -136 -72.5 -206t-212.5 -70t-212.5 70t-72.5 206zM166 1567v200h135v-200h-135zM391 1567v200h135v-200h-135z" />
    <glyph glyph-name="aacute" unicode="&#xe1;" horiz-adv-x="565" 
d="M41 0l176 1475h334l160 -1475h-224l-45 397h-137l-47 -397h-217zM324 588h102l-23 367q-2 48 -6.5 112t-15.5 186h-10q-3 -32 -11 -159q-6 -88 -10 -142zM342 1251h-119l72 224h186z" />
    <glyph glyph-name="agrave" unicode="&#xe0;" horiz-adv-x="565" 
d="M41 0l176 1475h334l160 -1475h-224l-45 397h-137l-47 -397h-217zM324 588h102l-23 367q-2 48 -6.5 112t-15.5 186h-10q-3 -32 -11 -159q-6 -88 -10 -142zM274 1251l-139 224h186l72 -224h-119z" />
    <glyph glyph-name="acircumflex" unicode="&#xe2;" horiz-adv-x="565" 
d="M41 0l176 1475h334l160 -1475h-224l-45 397h-137l-47 -397h-217zM324 588h102l-23 367q-2 48 -6.5 112t-15.5 186h-10q-3 -32 -11 -159q-6 -88 -10 -142zM243 1251h-120l112 224h148l112 -224h-120l-66 111z" />
    <glyph glyph-name="adieresis" unicode="&#xe4;" horiz-adv-x="749" 
d="M29 0l176 1475h334l160 -1475h-224l-45 397h-137l-47 -397h-217zM312 588h102l-23 367q-2 48 -6.5 112t-15.5 186h-10q-3 -32 -11 -159q-6 -88 -10 -142zM189 1566v200h135v-200h-135zM414 1566v200h135v-200h-135z" />
    <glyph glyph-name="atilde" unicode="&#xe3;" horiz-adv-x="565" 
d="M41 0l176 1475h334l160 -1475h-224l-45 397h-137l-47 -397h-217zM324 588h102l-23 367q-2 48 -6.5 112t-15.5 186h-10q-3 -32 -11 -159q-6 -88 -10 -142zM497 1464q0 -92 -30 -143t-84 -51q-35 0 -81.5 31.5t-64.5 31.5q-16 0 -26.5 -16.5t-10.5 -42.5v-12h-79v14
q0 82 31.5 130t84.5 48q34 0 80 -30.5t64 -30.5q16 0 27.5 15.5t11.5 39.5q0 3 -1 8t-1 8h79z" />
    <glyph glyph-name="aring" unicode="&#xe5;" horiz-adv-x="565" 
d="M219 1405q0 -25 18 -43.5t44 -18.5q25 0 42 17.5t17 44.5t-16.5 44t-42.5 17q-27 0 -44.5 -17t-17.5 -44zM121 1405q0 65 47 111.5t113 46.5q64 0 110.5 -47t46.5 -111q0 -65 -46 -111.5t-111 -46.5q-67 0 -113.5 46t-46.5 112zM236 451v-234q0 -35 10.5 -50t34.5 -15
q23 0 34 15t11 50v395q-53 -34 -71.5 -66t-18.5 -95zM530 0h-194q-3 13 -4.5 29.5t-1.5 36.5v24h-4q-29 -55 -64 -79.5t-84 -24.5q-75 0 -106 43.5t-31 163.5v251q0 100 26 150t95 92q14 9 42 26q122 73 122 167v112q0 35 -11 50.5t-34 15.5q-24 0 -34.5 -15t-10.5 -51v-239
h-195v219q0 116 59 172.5t181 56.5q125 0 183 -54.5t58 -174.5v-836q0 -37 2 -70t6 -65z" />
    <glyph glyph-name="ccedilla" unicode="&#xe7;" horiz-adv-x="569" 
d="M389 1247q0 48 -14.5 67t-48.5 19t-49 -19t-15 -67v-978q0 -49 15 -68.5t49 -19.5t48.5 19.5t14.5 68.5v324h221v-316q0 -136 -72 -207t-212 -71q-141 0 -213 71t-72 207v952q0 136 72 206t213 70q140 0 212 -70t72 -206v-287h-221v305zM98 -266l119 198h125l-67 -198
h-177z" />
    <glyph glyph-name="eacute" unicode="&#xe9;" horiz-adv-x="569" 
d="M41 0v1475h486v-201h-267v-371h261v-194h-261v-506h267v-203h-486zM310 1251h-119l72 224h186z" />
    <glyph glyph-name="egrave" unicode="&#xe8;" horiz-adv-x="569" 
d="M41 0v1475h486v-201h-267v-371h261v-194h-261v-506h267v-203h-486zM242 1251l-139 224h186l72 -224h-119z" />
    <glyph glyph-name="ecircumflex" unicode="&#xea;" horiz-adv-x="569" 
d="M41 0v1475h486v-201h-267v-371h261v-194h-261v-506h267v-203h-486zM211 1251h-120l112 224h148l112 -224h-120l-66 111z" />
    <glyph glyph-name="edieresis" unicode="&#xeb;" horiz-adv-x="569" 
d="M41 0v1475h486v-201h-267v-371h261v-194h-261v-506h267v-203h-486zM97 1262v200h135v-200h-135zM322 1262v200h135v-200h-135z" />
    <glyph glyph-name="iacute" unicode="&#xed;" horiz-adv-x="287" 
d="M45 0v1180h197v-1180h-197zM176 1251h-119l72 224h186z" />
    <glyph glyph-name="igrave" unicode="&#xec;" horiz-adv-x="287" 
d="M45 0v1180h197v-1180h-197zM108 1251l-139 224h186l72 -224h-119z" />
    <glyph glyph-name="icircumflex" unicode="&#xee;" horiz-adv-x="287" 
d="M45 0v1180h197v-1180h-197zM77 1251h-120l112 224h148l112 -224h-120l-66 111z" />
    <glyph glyph-name="idieresis" unicode="&#xef;" horiz-adv-x="287" 
d="M45 0v1180h197v-1180h-197zM-37 1262v200h135v-200h-135zM188 1262v200h135v-200h-135z" />
    <glyph glyph-name="ntilde" unicode="&#xf1;" horiz-adv-x="569" 
d="M45 0v1475h334l82 -605q22 -163 41 -335t35 -351l12 1q-4 180 -6 319.5t-2 187.5l-6 783h182v-1475h-326l-106 815q-27 210 -39.5 311.5t-19.5 171.5h-15q3 -162 4.5 -253.5t1.5 -116.5l7 -928h-179zM467 1464q0 -92 -30 -143t-84 -51q-35 0 -81.5 31.5t-64.5 31.5
q-16 0 -26.5 -16.5t-10.5 -42.5v-12h-79v14q0 82 31.5 130t84.5 48q34 0 80 -30.5t64 -30.5q16 0 27.5 15.5t11.5 39.5q0 3 -1 8t-1 8h79z" />
    <glyph glyph-name="oacute" unicode="&#xf3;" horiz-adv-x="569" 
d="M262 1241v-999q0 -50 15 -70t49 -20t49.5 20.5t15.5 69.5v999q0 48 -15 68t-50 20q-34 0 -49 -19.5t-15 -68.5zM41 1229q0 136 72.5 206t212.5 70t212.5 -70t72.5 -206v-952q0 -136 -72.5 -207t-212.5 -71t-212.5 71t-72.5 207v952zM308 1251h-119l72 224h186z" />
    <glyph glyph-name="ograve" unicode="&#xf2;" horiz-adv-x="569" 
d="M262 1241v-999q0 -50 15 -70t49 -20t49.5 20.5t15.5 69.5v999q0 48 -15 68t-50 20q-34 0 -49 -19.5t-15 -68.5zM41 1229q0 136 72.5 206t212.5 70t212.5 -70t72.5 -206v-952q0 -136 -72.5 -207t-212.5 -71t-212.5 71t-72.5 207v952zM240 1251l-139 224h186l72 -224h-119z
" />
    <glyph glyph-name="ocircumflex" unicode="&#xf4;" horiz-adv-x="569" 
d="M262 1241v-999q0 -50 15 -70t49 -20t49.5 20.5t15.5 69.5v999q0 48 -15 68t-50 20q-34 0 -49 -19.5t-15 -68.5zM41 1229q0 136 72.5 206t212.5 70t212.5 -70t72.5 -206v-952q0 -136 -72.5 -207t-212.5 -71t-212.5 71t-72.5 207v952zM209 1251h-120l112 224h148l112 -224
h-120l-66 111z" />
    <glyph glyph-name="odieresis" unicode="&#xf6;" horiz-adv-x="702" 
d="M292 1241v-999q0 -50 15 -70t49 -20t49.5 20.5t15.5 69.5v999q0 48 -15 68t-50 20q-34 0 -49 -19.5t-15 -68.5zM71 1229q0 136 72.5 206t212.5 70t212.5 -70t72.5 -206v-952q0 -136 -72.5 -207t-212.5 -71t-212.5 71t-72.5 207v952zM169 1582v200h135v-200h-135z
M394 1582v200h135v-200h-135z" />
    <glyph glyph-name="otilde" unicode="&#xf5;" horiz-adv-x="569" 
d="M262 1241v-999q0 -50 15 -70t49 -20t49.5 20.5t15.5 69.5v999q0 48 -15 68t-50 20q-34 0 -49 -19.5t-15 -68.5zM41 1229q0 136 72.5 206t212.5 70t212.5 -70t72.5 -206v-952q0 -136 -72.5 -207t-212.5 -71t-212.5 71t-72.5 207v952zM463 1464q0 -92 -30 -143t-84 -51
q-35 0 -81.5 31.5t-64.5 31.5q-16 0 -26.5 -16.5t-10.5 -42.5v-12h-79v14q0 82 31.5 130t84.5 48q34 0 80 -30.5t64 -30.5q16 0 27.5 15.5t11.5 39.5q0 3 -1 8t-1 8h79z" />
    <glyph glyph-name="uacute" unicode="&#xfa;" horiz-adv-x="664" 
d="M45 276v1199h221v-1206q0 -49 15 -68.5t49 -19.5t49.5 20t15.5 68v1206h220v-1199q0 -136 -72.5 -206t-212.5 -70t-212.5 70t-72.5 206zM318 1251h-119l72 224h186z" />
    <glyph glyph-name="ugrave" unicode="&#xf9;" horiz-adv-x="610" 
d="M-2 276v1199h221v-1206q0 -49 15 -68q15 -20 49 -20t49 20q16 20 16 68v1206h220v-1199q0 -136 -73 -206q-72 -70 -212 -70t-213 70q-72 70 -72 206v0zM203 1251l-139 224h186l72 -224h-119v0z" />
    <glyph glyph-name="ucircumflex" unicode="&#xfb;" horiz-adv-x="655" 
d="M45 276v1199h221v-1206q0 -49 15 -68.5t49 -19.5t49.5 20t15.5 68v1206h220v-1199q0 -136 -72.5 -206t-212.5 -70t-212.5 70t-72.5 206zM219 1251h-120l112 224h148l112 -224h-120l-66 111z" />
    <glyph glyph-name="udieresis" unicode="&#xfc;" horiz-adv-x="695" 
d="M61 276v1199h221v-1206q0 -49 15 -68.5t49 -19.5t49.5 20t15.5 68v1206h220v-1199q0 -136 -72.5 -206t-212.5 -70t-212.5 70t-72.5 206zM166 1567v200h135v-200h-135zM391 1567v200h135v-200h-135z" />
    <glyph glyph-name="dagger" unicode="&#x2020;" horiz-adv-x="702" 
d="M436 1475v-363h250v-147h-250v-1016l-84 -99l-86 99v1016h-252v147h252v363h170z" />
    <glyph glyph-name="degree" unicode="&#xb0;" 
d="M338 1350q-77 0 -131.5 -54t-54.5 -131q0 -76 54.5 -131t131.5 -55t130.5 54.5t53.5 131.5t-53.5 131t-130.5 54zM338 1460q121 0 208 -87t87 -210q0 -121 -87 -208t-210 -87t-208 85.5t-85 209.5q0 125 86 211t209 86z" />
    <glyph glyph-name="cent" unicode="&#xa2;" 
d="M582 227q0 -103 -47.5 -156.5t-151.5 -70.5v-195h-92v195q-102 15 -150.5 70t-48.5 157v762q0 103 47 157t152 71v163h92v-163q102 -16 150.5 -71t48.5 -157v-219h-201v240q0 34 -10.5 49.5t-34.5 15.5t-34.5 -15t-10.5 -50v-801q0 -36 10.5 -52t34.5 -16q23 0 34 16
t11 52v276h201v-258z" />
    <glyph glyph-name="sterling" unicode="&#xa3;" 
d="M219 168q33 7 68 10.5t73 3.5h283v-182h-592v182q51 80 72.5 145t21.5 138q0 36 -3 81t-9 99h-82v133h68q-27 172 -39 271t-12 149q0 151 74 229t216 78q153 0 218 -73.5t65 -253.5v-287h-215v321q0 69 -14.5 92t-51.5 23t-53 -23t-16 -75q0 -99 28.5 -246t28.5 -205h295
v-133h-278q2 -31 3 -59t1 -51q0 -126 -31.5 -194.5t-118.5 -156.5v-16z" />
    <glyph glyph-name="section" unicode="&#xa7;" horiz-adv-x="702" 
d="M633 1018h-178v211q0 68 -26 98.5t-83 30.5q-58 0 -80 -27.5t-22 -116.5q0 -75 25 -112.5t104 -81.5l104 -59q88 -49 124 -109t36 -168q0 -143 -16.5 -187.5t-59.5 -68.5q40 -29 56 -68.5t16 -140.5q0 -195 -67.5 -280.5t-217.5 -85.5q-139 0 -212 79.5t-73 233.5v192
h181v-225q0 -72 26 -102.5t86 -30.5q57 0 78 23t21 124q0 95 -21.5 124.5t-103.5 74.5l-107 60q-91 51 -126.5 116t-35.5 205q0 93 17.5 140t58.5 73q-40 41 -57 92t-17 142q0 165 72.5 248t216.5 83q147 0 214 -78t67 -253v-156zM242 891v-158q0 -92 34 -141t113 -90
l72 -39v158q0 90 -26.5 131.5t-94.5 81.5z" />
    <glyph glyph-name="bullet" unicode="&#x2022;" horiz-adv-x="1208" 
d="M307 762q0 123 87 209t210 86q122 0 208.5 -86.5t86.5 -208.5t-87.5 -209.5t-209.5 -87.5q-123 0 -209 87t-86 210z" />
    <glyph glyph-name="paragraph" unicode="&#xb6;" horiz-adv-x="1024" 
d="M422 0v575h-41q-163 0 -236.5 64.5t-73.5 206.5v362q0 140 74 203.5t236 63.5h260v-1475h-219zM312.5 773.5q20.5 -23.5 61.5 -23.5h48v555h-48q-41 0 -61.5 -24t-20.5 -73v-362q0 -49 20.5 -72.5zM938 0h-219v1475h219v-1475zM567 1324v149h198v-149h-198z" />
    <glyph glyph-name="germandbls" unicode="&#xdf;" horiz-adv-x="575" 
d="M47 0v1223q0 154 56 218t186 64q132 0 189 -63t57 -215v-162q0 -91 -33 -143t-99 -66v-10q73 -15 102.5 -69.5t29.5 -182.5v-365q0 -128 -35.5 -178.5t-122.5 -50.5h-96v166h12q24 0 33.5 15.5t9.5 56.5v448q0 45 -11.5 57.5t-43.5 12.5v159h10q25 0 35 15t10 57v295
q0 40 -11 58t-34 18q-26 0 -36.5 -17.5t-10.5 -58.5v-1282h-197z" />
    <glyph glyph-name="registered" unicode="&#xae;" horiz-adv-x="1706" 
d="M854 1362q-129 0 -240 -45.5t-200 -134.5q-92 -94 -141.5 -210t-49.5 -241t47 -238.5t136 -203.5q90 -91 204 -140t234 -49q130 0 246.5 47t209.5 138q89 86 137 198.5t48 237.5q0 133 -45.5 247.5t-134.5 205.5q-93 92 -207.5 140t-243.5 48zM852 1470q153 0 288.5 -56
t241.5 -165q103 -104 157 -236.5t54 -281.5q0 -153 -55.5 -287t-161.5 -237q-108 -105 -243 -161t-281 -56q-147 0 -282.5 57.5t-241.5 165.5q-105 106 -160 239t-55 279q0 147 57.5 284t165.5 245q104 104 234.5 157t281.5 53zM909 882v148q0 30 -12.5 45t-37.5 15h-30
v-267h30q25 0 37.5 14.5t12.5 44.5zM695 1194h159q101 0 145.5 -39t44.5 -127v-106q0 -70 -31 -105.5t-102 -47.5v-5q67 -1 100 -32t33 -92v-185q0 -60 6 -100t18 -65h-142q-9 21 -13 51.5t-4 76.5v40v197q0 29 -18 43t-56 14h-6v-422h-134v904z" />
    <glyph glyph-name="copyright" unicode="&#xa9;" horiz-adv-x="1706" 
d="M854 1362q-130 0 -243 -46.5t-201 -135.5q-90 -92 -138.5 -208t-48.5 -241q0 -126 48 -240t139 -204q90 -91 204.5 -139t239.5 -48t240 48.5t209 140.5q89 88 135.5 200.5t46.5 241.5t-47 243.5t-135 203.5q-91 90 -205 137t-244 47zM852 1470q152 0 286 -55t240 -162
q105 -105 160 -238.5t55 -283.5q0 -153 -54.5 -286t-158.5 -234q-108 -107 -244.5 -164t-283.5 -57q-146 0 -280 56.5t-240 162.5q-107 106 -163 240.5t-56 281.5q0 145 57 280.5t164 243.5q105 107 235.5 161t282.5 54zM899 1034q0 29 -8.5 40t-28.5 11t-28.5 -11t-8.5 -40
v-577q0 -29 8.5 -40.5t28.5 -11.5t28.5 11.5t8.5 40.5v191h131v-187q0 -80 -42.5 -122t-125.5 -42t-125.5 42t-42.5 122v563q0 80 42.5 121.5t125.5 41.5t125.5 -41.5t42.5 -121.5v-170h-131v180z" />
    <glyph glyph-name="trademark" unicode="&#x2122;" horiz-adv-x="803" 
d="M199 941h-77v447h-66v66h209v-66h-66v-447zM356 919v528h119l23 -199v-3q0 -2 1 -19q5 -83 7 -168h5q1 49 4 95t7 90l22 204h115v-528h-72l2 275v7q0 17 0.5 61t2.5 98h-4q-2 -41 -5 -77t-6 -59l-35 -305h-74q-19 162 -29 264.5t-15 176.5h-4q0 -26 2 -69q2 -68 2 -77
v-295h-68z" />
    <glyph glyph-name="acute" unicode="&#xb4;" horiz-adv-x="1024" 
d="M545 1251h-119l72 224h186z" />
    <glyph glyph-name="dieresis" unicode="&#xa8;" horiz-adv-x="1024" 
d="M332 1262v200h135v-200h-135zM557 1262v200h135v-200h-135z" />
    <glyph glyph-name="notequal" unicode="&#x2260;" horiz-adv-x="1706" 
d="M1204 1212l123 -100l-170 -215h295v-162h-403l-197 -250h600v-161h-707l-249 -314l-123 99l170 215h-289v161h393l199 250h-592v162h700z" />
    <glyph glyph-name="AE" unicode="&#xc6;" horiz-adv-x="938" 
d="M305 598h129v674h-18zM434 0v401h-168l-80 -401h-221l309 1475h646v-203h-267v-369h260v-194h-260v-506h267v-203h-486z" />
    <glyph glyph-name="Oslash" unicode="&#xd8;" 
d="M266 319v-77q0 -50 16 -69t54 -19q39 0 55.5 19t16.5 69v663q-18 -81 -27.5 -121.5t-18.5 -74.5zM408 1161v80q0 50 -16.5 69t-55.5 19q-38 0 -54 -19t-16 -69v-684q15 97 42 198q2 7 3 11zM51 1223q0 139 72.5 210.5t212.5 71.5q33 0 59.5 -3.5t53.5 -10.5q2 0 14 -5
q8 -3 14 -5l45 168h113l-62 -240q26 -35 37 -76.5t11 -109.5v-973q0 -139 -72.5 -211t-212.5 -72q-45 0 -78.5 6.5t-62.5 20.5l-41 -152h-119l61 228q-24 29 -34.5 70t-10.5 110v973z" />
    <glyph glyph-name="infinity" unicode="&#x221e;" horiz-adv-x="1706" 
d="M928 559q45 -81 109.5 -122.5t146.5 -41.5q97 0 159 61.5t62 157.5q0 95 -57 158.5t-142 63.5q-78 0 -142 -63.5t-136 -213.5zM780 662q-46 81 -111 123t-145 42q-98 0 -159.5 -62t-61.5 -159q0 -94 56.5 -156.5t140.5 -62.5q80 0 144.5 62.5t135.5 212.5zM862 471
q-71 -135 -148.5 -197.5t-172.5 -62.5q-137 0 -232.5 114.5t-95.5 284.5q0 179 85 289.5t220 110.5q93 0 168.5 -60t157.5 -200q71 139 149.5 200.5t184.5 61.5q127 0 222 -116t95 -284q0 -178 -84.5 -288.5t-220.5 -110.5q-92 0 -166.5 57.5t-161.5 200.5z" />
    <glyph glyph-name="plusminus" unicode="&#xb1;" horiz-adv-x="1706" 
d="M254 182h1198v-168h-1198v168zM768 1206h170v-334h514v-165h-514v-334h-170v334h-514v165h514v334z" />
    <glyph glyph-name="lessequal" unicode="&#x2264;" horiz-adv-x="1706" 
d="M260 178h1186v-166h-1186v166zM1446 1223v-176l-889 -287l889 -287v-176l-1186 389v145z" />
    <glyph glyph-name="greaterequal" unicode="&#x2265;" horiz-adv-x="1706" 
d="M260 178h1188v-166h-1188v166zM260 1223l1186 -392v-145l-1186 -389v176l891 287l-891 287v176z" />
    <glyph glyph-name="yen" unicode="&#xa5;" 
d="M225 0v557h-219v100h193l-37 152h-156v100h131l-133 566h215l80 -326q15 -61 24 -140.5t13 -184.5l10 -1q7 87 18 166.5t27 155.5l74 330h207l-144 -566h131v-100h-153l-41 -152h194v-100h-219v-557h-215z" />
    <glyph glyph-name="mu" unicode="&#xb5;" horiz-adv-x="1208" 
d="M205 1081h229l-125 -635q-6 -29 -9 -55t-3 -49q0 -96 46.5 -146.5t135.5 -50.5q122 0 193.5 88.5t111.5 292.5l109 555h225l-145 -739q-10 -49 -14.5 -81.5t-4.5 -51.5q0 -36 15.5 -51t52.5 -15q13 0 20.5 0.5t13.5 1.5l-32 -159q-32 -9 -68.5 -13t-81.5 -4
q-74 0 -111.5 31.5t-37.5 93.5v15q-41 -67 -108 -104.5t-146 -37.5q-81 0 -137.5 26t-97.5 83l-99 -506h-229z" />
    <glyph glyph-name="partialdiff" unicode="&#x2202;" horiz-adv-x="1075" 
d="M758 639q17 103 26 186.5t9 147.5q0 120 -29 174.5t-92 54.5q-62 0 -147 -58.5t-122 -58.5t-64.5 26t-27.5 60q0 66 79 115t200 49q176 0 287.5 -159t111.5 -422q0 -338 -150 -558.5t-376 -220.5q-161 0 -266 112t-105 286q0 193 113 322.5t278 129.5q101 0 167.5 -45
t107.5 -141zM705 504q0 116 -41 178.5t-117 62.5q-105 0 -174.5 -131.5t-69.5 -337.5q0 -116 40.5 -177.5t117.5 -61.5q105 0 174.5 132.5t69.5 334.5z" />
    <glyph glyph-name="summation" unicode="&#x2211;" horiz-adv-x="1421" 
d="M61 1473h1280v-226h-921l647 -684l-661 -729h974v-227h-1347v160l712 786l-684 719v201z" />
    <glyph glyph-name="product" unicode="&#x220f;" horiz-adv-x="1579" 
d="M154 1473h1267v-1866h-286v1622h-695v-1622h-286v1866z" />
    <glyph glyph-name="pi" unicode="&#x3c0;" horiz-adv-x="1368" 
d="M360 889h-45q-54 0 -83.5 -31.5t-39.5 -99.5h-174q28 187 100 255t242 68h953l-39 -192h-193l-84 -437q-2 -13 -8 -41q-22 -113 -22 -147q0 -58 23 -82t77 -24q18 0 42.5 2.5t59.5 7.5l-34 -168q-29 -8 -61 -12t-75 -4q-139 0 -202.5 48t-63.5 154q0 77 52 344l1 6
l70 353h-268l-174 -889h-226z" />
    <glyph glyph-name="integral" unicode="&#x222b;" horiz-adv-x="1120" 
d="M324 -258q106 0 122 692q2 81 3 123q13 538 113 766.5t312 228.5q87 0 143 -45.5t56 -111.5q0 -61 -34 -95t-95 -34q-45 0 -74.5 22.5t-40.5 65.5q-4 17 -6 45q-3 40 -26 41q-101 0 -119 -615q-5 -161 -8 -249q-10 -280 -30.5 -427t-59.5 -245q-55 -136 -139.5 -205.5
t-194.5 -69.5q-87 0 -142 44t-55 112q0 63 35.5 97t99.5 34q39 0 66 -18t41 -54q6 -16 9 -59t24 -43z" />
    <glyph glyph-name="ordfeminine" unicode="&#xaa;" horiz-adv-x="483" 
d="M203 934v-173q0 -26 9 -37t28 -11q18 0 26.5 10.5t8.5 37.5v292q-43 -25 -57.5 -49t-14.5 -70zM437 601l-154 -1q-2 12 -3 24.5t-1 22.5v20h-4q-22 -41 -50 -59.5t-68 -18.5q-59 0 -83.5 33t-24.5 121v187q0 73 20.5 110t74.5 69q11 6 30 17q101 55 101 125v83
q0 27 -8.5 38t-26.5 11q-21 0 -29 -11t-8 -38v-176h-154v162q0 85 47 127t144 42q99 0 144.5 -40t45.5 -129v-621q0 -23 1.5 -47.5t5.5 -50.5z" />
    <glyph glyph-name="ordmasculine" unicode="&#xba;" horiz-adv-x="483" 
d="M200 1330v-613q0 -27 8.5 -39t27.5 -12t28.5 12t9.5 39v613q0 26 -9.5 38t-28.5 12q-20 0 -28 -11.5t-8 -38.5zM37 1314q0 88 49.5 131.5t149.5 43.5t150.5 -43.5t50.5 -131.5v-583q0 -86 -50.5 -129t-150.5 -43t-149.5 43t-49.5 129v583z" />
    <glyph glyph-name="Omega" unicode="&#x3a9;" horiz-adv-x="1569" 
d="M1194 213h305v-213h-602v229q160 94 242 244.5t82 351.5q0 210 -121 341.5t-316 131.5q-197 0 -316.5 -132.5t-119.5 -352.5q0 -191 84 -342t240 -242v-229h-602v213h305q-144 130 -211.5 274t-67.5 322q0 314 190.5 508t497.5 194q303 0 496 -192.5t193 -493.5
q0 -190 -65.5 -333t-213.5 -279z" />
    <glyph glyph-name="ae" unicode="&#xe6;" horiz-adv-x="852" 
d="M236 455v-238q0 -35 10.5 -50t34.5 -15q23 0 34 15t11 50v395q-52 -32 -71 -65t-19 -92zM616 702v289q0 35 -10.5 50.5t-34.5 15.5t-34.5 -15t-10.5 -51v-289h90zM815 467v-258q0 -114 -61 -170.5t-183 -56.5q-82 0 -135 25.5t-88 80.5q-35 -53 -76.5 -77.5t-93.5 -24.5
q-75 0 -106 43.5t-31 163.5v251q0 100 26 150t95 92q14 9 42 26q122 73 122 167v112q0 35 -11 50.5t-34 15.5q-24 0 -33.5 -14.5t-9.5 -51.5v-239h-197v219q0 116 59 172.5t181 56.5q48 0 82 -10.5t63 -34.5q33 24 67 34.5t76 10.5q122 0 184 -58t62 -171v-410h-289v-371
q0 -35 11 -51t34 -16q24 0 34.5 15.5t10.5 51.5v277h199z" />
    <glyph glyph-name="oslash" unicode="&#xf8;" horiz-adv-x="569" 
d="M340 190v486l-109 -385v-101q0 -35 13 -51t41 -16q29 0 42 15.5t13 51.5zM231 991v-493l109 379v114q0 36 -13 51t-42 15t-41.5 -13.5t-12.5 -52.5zM41 971q0 114 61 171.5t183 57.5q46 0 76 -7t57 -21l55 171h88l-74 -227q22 -29 31.5 -60.5t9.5 -84.5v-762
q0 -114 -61 -170.5t-182 -56.5q-49 0 -85.5 8t-68.5 26l-55 -172h-88l78 240q-13 22 -19 52.5t-6 72.5v762z" />
    <glyph glyph-name="questiondown" unicode="&#xbf;" horiz-adv-x="535" 
d="M225 381v-203q0 -35 11 -51t34 -16q24 0 34.5 15.5t10.5 51.5v359h199v-340q0 -114 -61 -171t-183 -57t-183.5 57.5t-61.5 170.5v186q0 115 63 238q8 16 13 25q5 10 16 31q61 115 61 212v262h199v-326q0 -52 -14.5 -98t-45.5 -101q-7 -13 -22 -41q-70 -124 -70 -204z
M377 1235h-199v240h199v-240z" />
    <glyph glyph-name="exclamdown" unicode="&#xa1;" horiz-adv-x="360" 
d="M76 1153h209v-1153h-209v1153zM76 1475h209v-240h-209v240z" />
    <glyph glyph-name="logicalnot" unicode="&#xac;" horiz-adv-x="1706" 
d="M254 862h1198v-502h-166v336h-1032v166z" />
    <glyph glyph-name="radical" unicode="&#x221a;" horiz-adv-x="1323" 
d="M1128 1675h197v-110h-108l-594 -1606h-82l-316 872l-131 -49l-28 95l305 108l247 -688z" />
    <glyph glyph-name="florin" unicode="&#x192;" 
d="M631 1325h-72q-75 0 -99 -28t-24 -144v-248h195v-135h-195v-649q0 -206 -72 -283.5t-266 -77.5q-9 0 -28 1t-29 1v183h72q78 0 98 27t20 116v682h-184v135h184v246q0 196 67.5 275t227.5 79q38 0 61 -0.5t44 -1.5v-178z" />
    <glyph glyph-name="approxequal" unicode="&#x2248;" horiz-adv-x="1706" 
d="M1530 592v-186q-107 -73 -200 -106.5t-189 -33.5q-89 0 -279.5 66.5t-298.5 66.5q-84 0 -173.5 -36t-211.5 -121v184q112 75 206.5 110t180.5 35q118 0 309 -67.5t277 -67.5q83 0 172 36.5t207 119.5zM1530 979v-184q-109 -75 -201.5 -108.5t-187.5 -33.5
q-88 0 -278.5 67.5t-299.5 67.5q-82 0 -170 -35t-215 -122v184q109 73 205 109.5t182 36.5q120 0 310 -68t268 -68q92 0 181 35t206 119z" />
    <glyph glyph-name="Delta" unicode="&#x2206;" horiz-adv-x="1395" 
d="M698 1196l-379 -983h756zM569 1473h256l574 -1473h-1403z" />
    <glyph glyph-name="guillemotleft" unicode="&#xab;" horiz-adv-x="721" 
d="M666 158l-279 293v282l279 291v-250l-172 -182l172 -178v-256zM332 158l-279 293v282l279 291v-250l-172 -182l172 -178v-256z" />
    <glyph glyph-name="guillemotright" unicode="&#xbb;" horiz-adv-x="721" 
d="M53 158v256l172 178l-172 182v250l279 -291v-282zM387 158v256l172 178l-172 182v250l279 -291v-282z" />
    <glyph glyph-name="ellipsis" unicode="&#x2026;" horiz-adv-x="1706" 
d="M1161 822q-31 92 -52.5 157.5t-35.5 104.5q172 0 345 -27q118 -19 151 -177q13 -60 25 -116.5t25 -110.5q6 -115 -67 -122q-92 -20 -167 -24q-85 -9 -152 -14q-18 84 -27 127q-7 42 -25 126h57h61h58h60q28 6 31 40q-3 28 -33 36h-65h-63h-63h-63zM490 822h-52h-51h-52
h-51q-31 -8 -32 -36q0 -34 31 -40h44.5h44.5h43.5h44.5q-9 -32 -15.5 -63t-13.5 -63q-11 -43 -29 -127q-57 5 -124 14q-59 4 -131 24q-73 7 -66 122q9 55 23 112q9 52 27 115q31 158 150 177q154 27 308 27q-48 -116 -99 -262zM1273 -5q-47 81 -71 128q-24 44 -58 106
q-130 212 -202 212q-76 0 -300 -192q-71 -61 -129 -114q-36 -31 -75 -67t-82 -73q118 913 500 1477q302 -527 417 -1477z" />
    <glyph glyph-name="nonbreakingspace" unicode="&#xa0;" 
 />
    <glyph glyph-name="Agrave" unicode="&#xc0;" horiz-adv-x="672" 
d="M0 0l176 1475h334l160 -1475h-224l-45 397h-137l-47 -397h-217zM283 588h102l-23 367q-2 48 -6.5 112t-15.5 186h-10q-3 -32 -11 -159q-6 -88 -10 -142zM272 1556l-139 224h186l72 -224h-119z" />
    <glyph glyph-name="Atilde" unicode="&#xc3;" horiz-adv-x="672" 
d="M0 0l176 1475h334l160 -1475h-224l-45 397h-137l-47 -397h-217zM283 588h102l-23 367q-2 48 -6.5 112t-15.5 186h-10q-3 -32 -11 -159q-6 -88 -10 -142zM495 1769q0 -92 -30 -143t-84 -51q-35 0 -81.5 31.5t-64.5 31.5q-16 0 -26.5 -16.5t-10.5 -42.5v-12h-79v14
q0 82 31.5 130t84.5 48q34 0 80 -30.5t64 -30.5q16 0 27.5 15.5t11.5 39.5q0 3 -1 8t-1 8h79z" />
    <glyph glyph-name="Otilde" unicode="&#xd5;" 
d="M272 1241v-999q0 -50 15 -70t49 -20t49.5 20.5t15.5 69.5v999q0 48 -15 68t-50 20q-34 0 -49 -19.5t-15 -68.5zM51 1229q0 136 72.5 206t212.5 70t212.5 -70t72.5 -206v-952q0 -136 -72.5 -207t-212.5 -71t-212.5 71t-72.5 207v952zM536 1769q0 -92 -30 -143t-84 -51
q-35 0 -81.5 31.5t-64.5 31.5q-16 0 -26.5 -16.5t-10.5 -42.5v-12h-79v14q0 82 31.5 130t84.5 48q34 0 80 -30.5t64 -30.5q16 0 27.5 15.5t11.5 39.5q0 3 -1 8t-1 8h79z" />
    <glyph glyph-name="OE" unicode="&#x152;" horiz-adv-x="874" 
d="M268 1241v-999q0 -50 15 -70t49 -20t48.5 20t14.5 70v999q0 49 -14.5 68.5t-48.5 19.5t-49 -19.5t-15 -68.5zM47 1223q0 139 72 210.5t213 71.5q46 0 83 -7.5t68 -22.5h400v-201h-267v-371h258v-194h-258v-506h267v-203h-400q-45 -18 -84.5 -26.5t-76.5 -8.5
q-132 0 -203.5 74t-71.5 211v973z" />
    <glyph glyph-name="oe" unicode="&#x153;" horiz-adv-x="854" 
d="M428 1155q33 23 68 34t77 11q122 0 183 -57.5t61 -171.5v-410h-289v-371q0 -35 11 -51t34 -16q24 0 34.5 15.5t10.5 51.5v277h199v-258q0 -114 -61 -170.5t-183 -56.5q-45 0 -80 11t-65 36q-36 -25 -74 -37t-82 -12q-111 0 -171 59t-60 170v762q0 114 61 171.5t183 57.5
q44 0 78 -10.5t65 -34.5zM618 702v289q0 35 -10.5 50.5t-34.5 15.5t-34.5 -15t-10.5 -51v-289h90zM240 991v-801q0 -35 10.5 -51t34.5 -16q23 0 34 15.5t11 51.5v801q0 35 -10.5 50.5t-34.5 15.5t-34.5 -15t-10.5 -51z" />
    <glyph glyph-name="endash" unicode="&#x2013;" horiz-adv-x="1024" 
d="M0 528v121h1024v-121h-1024z" />
    <glyph glyph-name="emdash" unicode="&#x2014;" horiz-adv-x="2048" 
d="M0 528v121h2048v-121h-2048z" />
    <glyph glyph-name="quotedblleft" unicode="&#x201c;" horiz-adv-x="594" 
d="M35 1475h194l72 -435h-135zM291 1475h194l72 -435h-135z" />
    <glyph glyph-name="quotedblright" unicode="&#x201d;" horiz-adv-x="594" 
d="M578 1475l-132 -435h-135l72 435h195zM319 1475l-131 -435h-133l72 435h192z" />
    <glyph glyph-name="quoteleft" unicode="&#x2018;" horiz-adv-x="336" 
d="M35 1475h194l72 -435h-135z" />
    <glyph glyph-name="quoteright" unicode="&#x2019;" horiz-adv-x="336" 
d="M319 1475l-133 -435h-133l72 435h194z" />
    <glyph glyph-name="divide" unicode="&#xf7;" horiz-adv-x="1706" 
d="M854 367q57 0 97 -40.5t40 -97.5q0 -56 -39.5 -95.5t-97.5 -39.5t-97.5 39t-39.5 96t40.5 97.5t96.5 40.5zM254 694h1198v-166h-1198v166zM854 1128q57 0 97 -41t40 -98q0 -56 -39.5 -95.5t-97.5 -39.5t-97.5 39t-39.5 96t40.5 98t96.5 41z" />
    <glyph glyph-name="lozenge" unicode="&#x25ca;" horiz-adv-x="1012" 
d="M506 1409l-385 -817l385 -825l385 825zM506 1653l500 -1061l-500 -1069l-500 1069z" />
    <glyph glyph-name="ydieresis" unicode="&#xff;" horiz-adv-x="555" 
d="M213 0v553l-217 922h217l80 -324q15 -62 24.5 -143.5t12.5 -175.5h8q5 88 15.5 164.5t27.5 148.5l76 330h207l-225 -922v-553h-226zM76 1262v200h135v-200h-135zM301 1262v200h135v-200h-135z" />
    <glyph glyph-name="Ydieresis" unicode="&#x178;" horiz-adv-x="594" 
d="M184 0v553l-217 922h217l80 -324q15 -62 24.5 -143.5t12.5 -175.5h8q5 88 15.5 164.5t27.5 148.5l76 330h207l-225 -922v-553h-226zM65 1567v200h135v-200h-135zM290 1567v200h135v-200h-135z" />
    <glyph glyph-name="fraction" unicode="&#x2215;" horiz-adv-x="342" 
d="M-315 -8l866 1480h106l-866 -1480h-106z" />
    <glyph glyph-name="currency" unicode="&#xa4;" horiz-adv-x="1241" 
d="M623 1176q-120 0 -205.5 -86t-85.5 -205q0 -120 84.5 -204.5t206.5 -84.5q121 0 205.5 84.5t84.5 204.5q0 119 -85.5 205t-204.5 86zM168 1430l203 -203q55 41 117 61.5t133 20.5t134 -20.5t117 -61.5l203 203l94 -93l-204 -204q39 -54 59 -116.5t20 -131.5
q0 -70 -20 -132.5t-59 -115.5l204 -205l-94 -92l-203 205q-57 -42 -118 -62t-131 -20q-72 0 -135 20.5t-117 61.5l-203 -205l-92 92l203 205q-40 53 -60 115.5t-20 132.5q0 69 20 131.5t60 116.5l-203 204z" />
    <glyph glyph-name="guilsinglleft" unicode="&#x2039;" horiz-adv-x="387" 
d="M332 158l-277 293v282l277 291v-250l-170 -182l170 -178v-256z" />
    <glyph glyph-name="guilsinglright" unicode="&#x203a;" horiz-adv-x="387" 
d="M53 158v256l172 178l-172 182v250l279 -291v-282z" />
    <glyph glyph-name="fi" unicode="&#xf001;" horiz-adv-x="598" 
d="M356 1266v209h197v-209h-197zM356 0v1180h197v-1180h-197zM45 0v1020h-55v160h55v90q0 127 31.5 166t118.5 39h106v-162h-10q-29 0 -39 -9.5t-10 -41.5v-82h59v-160h-59v-1020h-197z" />
    <glyph glyph-name="fl" unicode="&#xf002;" horiz-adv-x="598" 
d="M356 0v1475h197v-1475h-197zM45 0v1020h-55v160h55v90q0 127 31.5 166t118.5 39h106v-162h-10q-29 0 -39 -9.5t-10 -41.5v-82h59v-160h-59v-1020h-197z" />
    <glyph glyph-name="daggerdbl" unicode="&#x2021;" horiz-adv-x="702" 
d="M436 1475v-363h250v-147h-250v-199l-84 -98l-86 98v199h-252v147h252v363h170zM264 -137v362h-250v148h250v198l86 97l86 -97v-198h250v-148h-250v-362h-172z" />
    <glyph glyph-name="glyph195" unicode="&#xb7;" horiz-adv-x="336" 
d="M168 856q49 0 85 -35.5t36 -85.5q0 -49 -36 -84t-85 -35q-50 0 -84.5 35t-34.5 84q0 51 35 86t84 35z" />
    <glyph glyph-name="quotesinglbase" unicode="&#x201a;" horiz-adv-x="336" 
d="M301 233l-131 -434h-135l71 434h195z" />
    <glyph glyph-name="quotedblbase" unicode="&#x201e;" horiz-adv-x="594" 
d="M557 233l-131 -434h-133l72 434h192zM301 233l-131 -434h-135l71 434h195z" />
    <glyph glyph-name="perthousand" unicode="&#x2030;" horiz-adv-x="1657" 
d="M1436 168v414q0 38 -11 52.5t-39 14.5q-27 0 -38 -14.5t-11 -52.5v-414q0 -38 11.5 -54t37.5 -16q27 0 38.5 16t11.5 54zM1174 528q0 136 50.5 195t164.5 59t165.5 -59.5t51.5 -194.5v-305q0 -135 -52 -195.5t-165 -60.5t-164 60t-51 196v305zM909 168v414q0 38 -11 52.5
t-38 14.5t-38 -14.5t-11 -52.5v-414q0 -38 11.5 -54t37.5 -16t37.5 16t11.5 54zM647 528q0 136 51 195t164 59q114 0 165.5 -59.5t51.5 -194.5v-305q0 -135 -51.5 -195.5t-165.5 -60.5q-113 0 -164 60t-51 196v305zM756 1505h108l-495 -1538h-107zM315 891v412
q0 38 -11 53.5t-38 15.5t-38 -15.5t-11 -53.5v-412q0 -38 11.5 -54t37.5 -16t37.5 16t11.5 54zM49 1249q0 136 52 196t165 60q114 0 165.5 -60t51.5 -196v-305q0 -135 -51.5 -195.5t-165.5 -60.5q-113 0 -165 60.5t-52 195.5v305z" />
    <glyph glyph-name="Acircumflex" unicode="&#xc2;" horiz-adv-x="672" 
d="M0 0l176 1475h334l160 -1475h-224l-45 397h-137l-47 -397h-217zM283 588h102l-23 367q-2 48 -6.5 112t-15.5 186h-10q-3 -32 -11 -159q-6 -88 -10 -142zM241 1556h-120l112 224h148l112 -224h-120l-66 111z" />
    <glyph glyph-name="Ecircumflex" unicode="&#xca;" horiz-adv-x="559" 
d="M57 0v1475h486v-201h-267v-371h261v-194h-261v-506h267v-203h-486zM239 1556h-120l112 224h148l112 -224h-120l-66 111z" />
    <glyph glyph-name="Aacute" unicode="&#xc1;" horiz-adv-x="672" 
d="M0 0l176 1475h334l160 -1475h-224l-45 397h-137l-47 -397h-217zM283 588h102l-23 367q-2 48 -6.5 112t-15.5 186h-10q-3 -32 -11 -159q-6 -88 -10 -142zM340 1556h-119l72 224h186z" />
    <glyph glyph-name="Edieresis" unicode="&#xcb;" horiz-adv-x="559" 
d="M57 0v1475h486v-201h-267v-371h261v-194h-261v-506h267v-203h-486zM125 1567v200h135v-200h-135zM350 1567v200h135v-200h-135z" />
    <glyph glyph-name="Egrave" unicode="&#xc8;" horiz-adv-x="559" 
d="M57 0v1475h486v-201h-267v-371h261v-194h-261v-506h267v-203h-486zM270 1556l-139 224h186l72 -224h-119z" />
    <glyph glyph-name="Iacute" unicode="&#xcd;" horiz-adv-x="334" 
d="M276 0h-219v1475h219v-1475zM201 1556h-119l72 224h186z" />
    <glyph glyph-name="Icircumflex" unicode="&#xce;" horiz-adv-x="334" 
d="M276 0h-219v1475h219v-1475zM102 1556h-120l112 224h148l112 -224h-120l-66 111z" />
    <glyph glyph-name="Idieresis" unicode="&#xcf;" horiz-adv-x="334" 
d="M276 0h-219v1475h219v-1475zM-12 1567v200h135v-200h-135zM213 1567v200h135v-200h-135z" />
    <glyph glyph-name="Igrave" unicode="&#xcc;" horiz-adv-x="334" 
d="M276 0h-219v1475h219v-1475zM133 1556l-139 224h186l72 -224h-119z" />
    <glyph glyph-name="Oacute" unicode="&#xd3;" 
d="M272 1241v-999q0 -50 15 -70t49 -20t49.5 20.5t15.5 69.5v999q0 48 -15 68t-50 20q-34 0 -49 -19.5t-15 -68.5zM51 1229q0 136 72.5 206t212.5 70t212.5 -70t72.5 -206v-952q0 -136 -72.5 -207t-212.5 -71t-212.5 71t-72.5 207v952zM381 1556h-119l72 224h186z" />
    <glyph glyph-name="Ocircumflex" unicode="&#xd4;" 
d="M272 1241v-999q0 -50 15 -70t49 -20t49.5 20.5t15.5 69.5v999q0 48 -15 68t-50 20q-34 0 -49 -19.5t-15 -68.5zM51 1229q0 136 72.5 206t212.5 70t212.5 -70t72.5 -206v-952q0 -136 -72.5 -207t-212.5 -71t-212.5 71t-72.5 207v952zM282 1556h-120l112 224h148l112 -224
h-120l-66 111z" />
    <glyph glyph-name="Klingon" unicode="&#xf000;" horiz-adv-x="1272" 
d="M657 876q133 -31 221.5 -140t88.5 -252q0 -60 -16 -115q-25 16 -36 25q11 48 11 90q0 122 -73 217.5t-185 128.5q-3 12 -6 23.5t-5 22.5zM836 186q-1 0 -1.5 0.5l-0.5 0.5l-1 -2q-22 7 -46 14q-97 -76 -222 -76q-127 0 -223 76q-25 -9 -43 -18q113 -100 266 -100
q154 0 271 105zM180 363q-19 58 -19 121q0 146 92 256t230 139q-8 -31 -12 -46q-116 -31 -192.5 -127.5t-76.5 -221.5q0 -47 13 -93q-6 -4 -12 -8.5t-11 -7.5q-3 -3 -6 -6.5t-6 -5.5zM387 600v0q143 307 182 878v0q39 -573 182 -878v1l-182 -302l-23 37.5t-159 263.5zM120 0
q-106 196 72 375q108 75 172 179v0l195 -322v0q-330 0 -439 -232v0zM1207 314q-134 -188 -373 -127l-1 -2q-94 32 -251 48l-1 -2l24 40t169 283v0q1 -1 2 -4q165 -262 431 -236v0z" />
    <glyph glyph-name="Ograve" unicode="&#xd2;" 
d="M272 1241v-999q0 -50 15 -70t49 -20t49.5 20.5t15.5 69.5v999q0 48 -15 68t-50 20q-34 0 -49 -19.5t-15 -68.5zM51 1229q0 136 72.5 206t212.5 70t212.5 -70t72.5 -206v-952q0 -136 -72.5 -207t-212.5 -71t-212.5 71t-72.5 207v952zM313 1556l-139 224h186l72 -224h-119z
" />
    <glyph glyph-name="Uacute" unicode="&#xda;" 
d="M51 276v1199h221v-1206q0 -49 15 -68.5t49 -19.5t49.5 20t15.5 68v1206h220v-1199q0 -136 -72.5 -206t-212.5 -70t-212.5 70t-72.5 206zM371 1556h-119l72 224h186z" />
    <glyph glyph-name="Ucircumflex" unicode="&#xdb;" 
d="M51 276v1199h221v-1206q0 -49 15 -68.5t49 -19.5t49.5 20t15.5 68v1206h220v-1199q0 -136 -72.5 -206t-212.5 -70t-212.5 70t-72.5 206zM272 1556h-120l112 224h148l112 -224h-120l-66 111z" />
    <glyph glyph-name="Ugrave" unicode="&#xd9;" 
d="M51 276v1199h221v-1206q0 -49 15 -68.5t49 -19.5t49.5 20t15.5 68v1206h220v-1199q0 -136 -72.5 -206t-212.5 -70t-212.5 70t-72.5 206zM303 1556l-139 224h186l72 -224h-119z" />
    <glyph glyph-name="dotlessi" unicode="&#x131;" horiz-adv-x="287" 
d="M45 0v1180h197v-1180h-197z" />
    <glyph glyph-name="circumflex" unicode="&#x2c6;" horiz-adv-x="1024" 
d="M446 1251h-120l112 224h148l112 -224h-120l-66 111z" />
    <glyph glyph-name="tilde" unicode="&#x2dc;" horiz-adv-x="1024" 
d="M700 1464q0 -92 -30 -143t-84 -51q-35 0 -81.5 31.5t-64.5 31.5q-16 0 -26.5 -16.5t-10.5 -42.5v-12h-79v14q0 82 31.5 130t84.5 48q34 0 80 -30.5t64 -30.5q16 0 27.5 15.5t11.5 39.5q0 3 -1 8t-1 8h79z" />
    <glyph glyph-name="macron" unicode="&#xaf;" horiz-adv-x="1024" 
d="M350 1298v129h322v-129h-322z" />
    <glyph glyph-name="breve" unicode="&#x2d8;" horiz-adv-x="1024" 
d="M451 1475v-15q0 -54 14.5 -77t46.5 -23t46.5 23t14.5 71v21h97v-17q0 -104 -40 -157.5t-118 -53.5q-79 0 -119.5 54t-40.5 159v15h99z" />
    <glyph glyph-name="dotaccent" unicode="&#x2d9;" horiz-adv-x="1024" 
d="M442 1260v206h140v-206h-140z" />
    <glyph glyph-name="ring" unicode="&#x2da;" horiz-adv-x="1024" 
d="M451 1405q0 -25 17.5 -42t43.5 -17t43.5 16.5t17.5 42.5q0 27 -17 44t-44 17t-44 -17t-17 -44zM354 1407q0 65 46.5 111.5t111.5 46.5t111.5 -47t46.5 -111q0 -66 -46.5 -113t-111.5 -47q-66 0 -112 47t-46 113z" />
    <glyph glyph-name="cedilla" unicode="&#xb8;" horiz-adv-x="1024" 
d="M319 -266l119 198h125l-67 -198h-177z" />
    <glyph glyph-name="hungarumlaut" unicode="&#x2dd;" horiz-adv-x="1024" 
d="M662 1251h-99l60 224h153zM451 1251h-99l60 224h153z" />
    <glyph glyph-name="ogonek" unicode="&#x2db;" horiz-adv-x="1024" 
d="M608 0q-36 -52 -51.5 -89.5t-15.5 -72.5q0 -28 11 -55t32 -49h-154q-12 24 -17 42t-5 34q0 49 23.5 90.5t88.5 99.5h88z" />
    <glyph glyph-name="caron" unicode="&#x2c7;" horiz-adv-x="1024" 
d="M446 1475l66 -111l66 111h120l-112 -224h-148l-112 224h120z" />
    <glyph glyph-name="Lslash" unicode="&#x141;" horiz-adv-x="573" 
d="M104 0v604l-104 -72v193l104 74v676h222v-570l123 86v-192l-123 -88v-508h264v-203h-486z" />
    <glyph glyph-name="lslash" unicode="&#x142;" horiz-adv-x="381" 
d="M92 0v639l-92 -66v121l92 64v717h197v-623l92 63v-120l-92 -64v-731h-197z" />
    <glyph glyph-name="Scaron" unicode="&#x160;" horiz-adv-x="625" 
d="M31 1229q0 136 71.5 206t210.5 70q141 0 213 -70t72 -206v-287h-219v305q0 47 -15.5 66.5t-50.5 19.5q-34 0 -48.5 -19t-14.5 -67v-104q0 -54 7 -86t22 -53l239 -320q45 -61 62.5 -110t17.5 -107v-190q0 -136 -72 -207t-213 -71q-139 0 -210.5 70.5t-71.5 207.5v316h219
v-324q0 -49 14.5 -68.5t48.5 -19.5q35 0 50.5 20t15.5 68v150q0 29 -9 56.5t-28 53.5l-250 341q-32 44 -46.5 91t-14.5 112v156zM239 1780l66 -111l66 111h120l-112 -224h-148l-112 224h120z" />
    <glyph glyph-name="scaron" unicode="&#x161;" horiz-adv-x="569" 
d="M41 1229q0 136 71.5 206t210.5 70q141 0 213 -70t72 -206v-287h-219v305q0 47 -15.5 66.5t-50.5 19.5q-34 0 -48.5 -19t-14.5 -67v-104q0 -54 7 -86t22 -53l239 -320q45 -61 62.5 -110t17.5 -107v-190q0 -136 -72 -207t-213 -71q-139 0 -210.5 70.5t-71.5 207.5v316h219
v-324q0 -49 14.5 -68.5t48.5 -19.5q35 0 50.5 20t15.5 68v150q0 29 -9 56.5t-28 53.5l-250 341q-32 44 -46.5 91t-14.5 112v156zM221 1475l66 -111l66 111h120l-112 -224h-148l-112 224h120z" />
    <glyph glyph-name="Zcaron" unicode="&#x17d;" horiz-adv-x="489" 
d="M2 0v172l258 1112h-252v191h488v-175l-256 -1110h256v-190h-494zM151 1780l66 -111l66 111h120l-112 -224h-148l-112 224h120z" />
    <glyph glyph-name="zcaron" unicode="&#x17e;" horiz-adv-x="477" 
d="M16 0v172l258 1112h-252v191h488v-175l-256 -1110h256v-190h-494zM159 1475l66 -111l66 111h120l-112 -224h-148l-112 224h120z" />
    <glyph glyph-name="brokenbar" unicode="&#xa6;" horiz-adv-x="1024" 
d="M424 408h178v-758h-178v758zM424 1432h178v-758h-178v758z" />
    <glyph glyph-name="Eth" unicode="&#xd0;" horiz-adv-x="721" 
d="M100 727h-84v180h84v568h260q163 0 235.5 -64t72.5 -207v-934q0 -143 -72.5 -206.5t-235.5 -63.5h-260v727zM319 727v-547h48q41 0 61.5 24t20.5 72v932q0 49 -20.5 73t-61.5 24h-48v-398h84v-180h-84z" />
    <glyph glyph-name="eth" unicode="&#xf0;" horiz-adv-x="569" 
d="M240 965v-781q0 -33 10.5 -47t34.5 -14t34.5 14t10.5 47v781q0 33 -10.5 47t-34.5 14q-25 0 -35 -13t-10 -48zM295 1135q-15 34 -31.5 66.5t-34.5 62.5l-161 -58l-25 72l147 53q-14 27 -28.5 50t-30.5 44l129 78q16 -20 33.5 -44t50.5 -73l150 54l26 -74l-137 -47
q82 -134 113.5 -234.5t31.5 -220.5v-669q0 -107 -60.5 -160t-182.5 -53t-183 53.5t-61 159.5v770q0 125 32.5 167t110.5 42q31 0 58 -9.5t53 -29.5z" />
    <glyph glyph-name="Yacute" unicode="&#xdd;" horiz-adv-x="594" 
d="M184 0v553l-217 922h217l80 -324q15 -62 24.5 -143.5t12.5 -175.5h8q5 88 15.5 164.5t27.5 148.5l76 330h207l-225 -922v-553h-226zM278 1556h-119l72 224h186z" />
    <glyph glyph-name="yacute" unicode="&#xfd;" horiz-adv-x="555" 
d="M213 0v553l-217 922h217l80 -324q15 -62 24.5 -143.5t12.5 -175.5h8q5 88 15.5 164.5t27.5 148.5l76 330h207l-225 -922v-553h-226zM289 1251h-119l72 224h186z" />
    <glyph glyph-name="Thorn" unicode="&#xde;" horiz-adv-x="643" 
d="M276 516h48q41 0 61.5 23.5t20.5 72.5v361q0 49 -20.5 72.5t-61.5 23.5h-48v-553zM57 0v1475h219v-234h41q161 0 235.5 -64.5t74.5 -203.5v-361q0 -141 -73.5 -205.5t-236.5 -64.5h-41v-342h-219z" />
    <glyph glyph-name="thorn" unicode="&#xfe;" horiz-adv-x="569" 
d="M242 963v-746q0 -36 10 -50.5t35 -14.5q24 0 34.5 15t10.5 50v746q0 36 -11 51.5t-34 15.5q-24 0 -34.5 -15.5t-10.5 -51.5zM45 -266v1741h197v-385q26 54 60.5 79t84.5 25q76 0 107.5 -44.5t31.5 -162.5v-784q0 -122 -32.5 -169.5t-108.5 -47.5q-45 0 -80 24t-63 74
v-350h-197z" />
    <glyph glyph-name="minus" unicode="&#x2212;" horiz-adv-x="1706" 
d="M254 696h1198v-170h-1198v170z" />
    <glyph glyph-name="multiply" unicode="&#xd7;" horiz-adv-x="1706" 
d="M403 1188l459 -459l461 459l117 -117l-459 -461l459 -458l-117 -119l-461 461l-459 -461l-116 119l458 458l-458 461z" />
    <glyph glyph-name="onesuperior" unicode="&#xb9;" horiz-adv-x="378" 
d="M154 588v672h-107v97q66 4 99.5 32.5t33.5 80.5v3h119v-885h-145z" />
    <glyph glyph-name="twosuperior" unicode="&#xb2;" horiz-adv-x="444" 
d="M195 694h213v-106h-377q-1 8 -1.5 18t-0.5 29q0 74 20.5 143.5t73.5 163.5q16 28 48 79q93 146 93 239v73q0 27 -10 38t-33 11q-19 0 -30 -13t-11 -36v-168h-145v156q0 83 49.5 126.5t144.5 43.5q90 0 136.5 -38t46.5 -112v-106q0 -99 -90 -242q-14 -23 -21 -35
q-62 -102 -83.5 -158t-22.5 -106z" />
    <glyph glyph-name="threesuperior" unicode="&#xb3;" horiz-adv-x="444" 
d="M35 909h145v-176q0 -32 9.5 -43.5t31.5 -11.5t31.5 12t9.5 43v170q0 45 -16 59.5t-58 14.5h-8v100h13q35 0 52 19t17 59v178q0 9 -1 19q-1 3 -1 4q0 12 -10.5 20t-28.5 8q-22 0 -31.5 -10t-9.5 -41v-182h-145v170q0 84 47 127t139 43q94 0 140.5 -42t46.5 -128v-154
q0 -65 -26.5 -98t-84.5 -41q64 -9 87.5 -33.5t23.5 -85.5v-172q0 -85 -46.5 -127.5t-140.5 -42.5q-92 0 -139 43t-47 127v172z" />
    <glyph glyph-name="onequarter" unicode="&#xbc;" horiz-adv-x="1284" 
d="M1003 0v205h-227v94l176 526h188v-518h60v-102h-60v-205h-137zM897 307h110l9 299q0 8 4 56q4 36 6 57h-12q-6 -27 -12 -53t-13 -54zM119 -33l866 1538h106l-866 -1538h-106zM157 647v627h-100l1 92q62 4 93 30t31 74v3h115v-826h-140z" />
    <glyph glyph-name="onehalf" unicode="&#xbd;" horiz-adv-x="1231" 
d="M962 101l203 -1v-100h-360q-1 8 -1.5 17.5t-0.5 27.5q0 68 19 131.5t71 155.5q14 25 45 71q90 136 90 224v69q0 25 -9.5 35t-31.5 10q-19 0 -29 -11.5t-10 -33.5v-157h-139v145q0 77 47.5 118.5t136.5 41.5q88 0 132 -35.5t44 -106.5v-98q0 -90 -84 -222q-15 -24 -22 -35
q-60 -100 -79.5 -151t-21.5 -95zM119 -33l866 1538h106l-866 -1538h-106zM157 647v627h-100l1 92q62 4 93 30t31 74v3h115v-826h-140z" />
    <glyph glyph-name="threequarters" unicode="&#xbe;" horiz-adv-x="1246" 
d="M1003 0v205h-227v94l176 526h188v-518h60v-102h-60v-205h-137zM897 307h110l9 299q0 8 4 56q4 36 6 57h-12q-6 -27 -12 -53t-13 -54zM119 -33l866 1538h106l-866 -1538h-106zM43 948h139v-166q0 -29 9 -40t30 -11t30 11.5t9 39.5v158q0 42 -15 56t-55 14h-8v94h10
q35 0 51.5 18t16.5 56v163v23q0 11 -11 19t-28 8q-21 0 -30 -10t-9 -40v-170h-139v160q0 80 44.5 120t133.5 40q90 0 134 -39.5t44 -120.5v-143q0 -61 -25.5 -91.5t-80.5 -37.5q62 -9 84 -31.5t22 -79.5v-162q0 -79 -44 -118t-134 -39q-89 0 -133.5 39.5t-44.5 117.5v162z
" />
    <glyph glyph-name="franc" unicode="&#x20a3;" horiz-adv-x="1096" 
d="M57 0v1475h486v-201h-267v-371h261v-194h-261v-709h-219zM942 967v241q0 49 -20.5 73t-61.5 24h-48v-435h48q41 0 61.5 24t20.5 73zM593 1475h260q164 0 237 -63.5t73 -207.5v-172q0 -114 -50.5 -172.5t-166.5 -77.5v-8q109 -2 163 -52.5t54 -150.5v-301
q0 -99 9.5 -164.5t29.5 -105.5h-232q-15 35 -21.5 84.5t-6.5 124.5v65v322q0 47 -29.5 69.5t-91.5 22.5h-9v-688h-219v1475z" />
    <glyph glyph-name="Gbreve" unicode="&#x11e;" horiz-adv-x="664" 
d="M401 1248q0 47 -15 66.5t-50 19.5q-34 0 -49 -19t-15 -67v-976q0 -49 15 -68.5t49 -19.5t49.5 20t15.5 68v315h-94v179h314v-730h-115l-12 88h-7q-34 -62 -85 -93t-119 -31q-115 0 -173.5 72t-58.5 214v944q0 136 72.5 205.5t212.5 69.5t212.5 -69.5t72.5 -205.5v-286
h-220v304zM261 1780v-15q0 -54 14.5 -77t46.5 -23t46.5 23t14.5 71v21h97v-17q0 -104 -40 -157.5t-118 -53.5q-79 0 -119.5 54t-40.5 159v15h99z" />
    <glyph glyph-name="gbreve" unicode="&#x11f;" horiz-adv-x="571" 
d="M395 1248q0 47 -15 66.5t-50 19.5q-34 0 -49 -19t-15 -67v-976q0 -49 15 -68.5t49 -19.5t49.5 20t15.5 68v315h-94v179h314v-730h-115l-12 88h-7q-34 -62 -85 -93t-119 -31q-115 0 -173.5 72t-58.5 214v944q0 136 72.5 205.5t212.5 69.5t212.5 -69.5t72.5 -205.5v-286
h-220v304zM210 1475v-15q0 -54 14.5 -77t46.5 -23t46.5 23t14.5 71v21h97v-17q0 -104 -40 -157.5t-118 -53.5q-79 0 -119.5 54t-40.5 159v15h99z" />
    <glyph glyph-name="Idotaccent" unicode="&#x130;" horiz-adv-x="334" 
d="M276 0h-219v1475h219v-1475zM98 1565v206h140v-206h-140z" />
    <glyph glyph-name="Scedilla" unicode="&#x15e;" horiz-adv-x="625" 
d="M31 1229q0 136 71.5 206t210.5 70q141 0 213 -70t72 -206v-287h-219v305q0 47 -15.5 66.5t-50.5 19.5q-34 0 -48.5 -19t-14.5 -67v-104q0 -54 7 -86t22 -53l239 -320q45 -61 62.5 -110t17.5 -107v-190q0 -136 -72 -207t-213 -71q-139 0 -210.5 70.5t-71.5 207.5v316h219
v-324q0 -49 14.5 -68.5t48.5 -19.5q35 0 50.5 20t15.5 68v150q0 29 -9 56.5t-28 53.5l-250 341q-32 44 -46.5 91t-14.5 112v156zM112 -266l119 198h125l-67 -198h-177z" />
    <glyph glyph-name="scedilla" unicode="&#x15f;" horiz-adv-x="569" 
d="M41 1229q0 136 71.5 206t210.5 70q141 0 213 -70t72 -206v-287h-219v305q0 47 -15.5 66.5t-50.5 19.5q-34 0 -48.5 -19t-14.5 -67v-104q0 -54 7 -86t22 -53l239 -320q45 -61 62.5 -110t17.5 -107v-190q0 -136 -72 -207t-213 -71q-139 0 -210.5 70.5t-71.5 207.5v316h219
v-324q0 -49 14.5 -68.5t48.5 -19.5q35 0 50.5 20t15.5 68v150q0 29 -9 56.5t-28 53.5l-250 341q-32 44 -46.5 91t-14.5 112v156zM94 -266l119 198h125l-67 -198h-177z" />
    <glyph glyph-name="Cacute" unicode="&#x106;" horiz-adv-x="639" 
d="M395 1247q0 48 -14.5 67t-48.5 19t-49 -19t-15 -67v-978q0 -49 15 -68.5t49 -19.5t48.5 19.5t14.5 68.5v324h221v-316q0 -136 -72 -207t-212 -71q-141 0 -213 71t-72 207v952q0 136 72 206t213 70q140 0 212 -70t72 -206v-287h-221v305zM383 1556h-119l72 224h186z" />
    <glyph glyph-name="cacute" unicode="&#x107;" horiz-adv-x="569" 
d="M389 1247q0 48 -14.5 67t-48.5 19t-49 -19t-15 -67v-978q0 -49 15 -68.5t49 -19.5t48.5 19.5t14.5 68.5v324h221v-316q0 -136 -72 -207t-212 -71q-141 0 -213 71t-72 207v952q0 136 72 206t213 70q140 0 212 -70t72 -206v-287h-221v305zM328 1251h-119l72 224h186z" />
    <glyph glyph-name="Ccaron" unicode="&#x10c;" horiz-adv-x="639" 
d="M395 1247q0 48 -14.5 67t-48.5 19t-49 -19t-15 -67v-978q0 -49 15 -68.5t49 -19.5t48.5 19.5t14.5 68.5v324h221v-316q0 -136 -72 -207t-212 -71q-141 0 -213 71t-72 207v952q0 136 72 206t213 70q140 0 212 -70t72 -206v-287h-221v305zM284 1780l66 -111l66 111h120
l-112 -224h-148l-112 224h120z" />
    <glyph glyph-name="ccaron" unicode="&#x10d;" horiz-adv-x="569" 
d="M389 1247q0 48 -14.5 67t-48.5 19t-49 -19t-15 -67v-978q0 -49 15 -68.5t49 -19.5t48.5 19.5t14.5 68.5v324h221v-316q0 -136 -72 -207t-212 -71q-141 0 -213 71t-72 207v952q0 136 72 206t213 70q140 0 212 -70t72 -206v-287h-221v305zM229 1475l66 -111l66 111h120
l-112 -224h-148l-112 224h120z" />
    <glyph glyph-name="dcroat" unicode="&#x111;" horiz-adv-x="598" 
d="M526 1475v-109h92v-90h-92v-1276h-192v90h-4q-22 -52 -58.5 -78t-87.5 -26q-75 0 -107 44t-32 163v786q0 121 32.5 168t108.5 47q48 0 83 -24.5t57 -73.5h6v180h-150v90h150v109h194zM332 217v746q0 35 -11 51t-34 16q-24 0 -34.5 -15.5t-10.5 -51.5v-746q0 -35 10.5 -50
t34.5 -15t34.5 15t10.5 50z" />
    <glyph glyph-name="sfthyphen" unicode="&#xad;" horiz-adv-x="360" 
d="M49 512v156h260v-156h-260z" />
    <glyph glyph-name="periodcentered" unicode="&#x2219;" horiz-adv-x="336" 
d="M168 856q49 0 85 -35.5t36 -85.5q0 -49 -36 -84t-85 -35q-50 0 -84.5 35t-34.5 84q0 51 35 86t84 35z" />
    <glyph glyph-name="Euro" unicode="&#x20ac;" horiz-adv-x="736" 
d="M438 1498q206 0 261 -107q-25 -138 -61 -138q-35 77 -154 77h-46q-76 -40 -76 -123v-245h184q30 -5 30 -31q0 -92 -92 -92h-122v-138h122q31 -5 31 -30v-46q0 -22 -46 -46h-107v-276q0 -123 122 -123q85 0 200 77l15 -31v-61q0 -145 -291 -169q-239 0 -261 307v276h-76
q-31 0 -31 30q0 92 107 92v138h-76q-31 0 -31 31q0 92 107 92v291q0 245 291 245z" />
    </font>
</defs>
</svg>
